<svg height="512" version="1.1" width="512" xmlns="http://www.w3.org/2000/svg" style="overflow: hidden;"><desc style="-webkit-tap-highlight-color: rgba(0, 0, 0, 0);">Created with Raphaël 2.1.0</desc><defs style="-webkit-tap-highlight-color: rgba(0, 0, 0, 0);"></defs><path fill="#85f8d1" stroke="#000000" d="M256.91883172557857,235.54062199723387L258.74909728394556,235.70534887899268L261.3742515941636,216.3256815329836L257.79623794865176,216.00365447629707" stroke-width="0" style="-webkit-tap-highlight-color: rgba(0, 0, 0, 0);"></path><path fill="#85f8d1" stroke="#000000" d="M258.74909728394556,235.70534887899268L260.5572287274253,236.03347635851625L264.90899492584794,216.96714287384506L261.3742515941636,216.3256815329836" stroke-width="0" style="-webkit-tap-highlight-color: rgba(0, 0, 0, 0);"></path><path fill="#85f8d1" stroke="#000000" d="M260.5572287274253,236.03347635851625L262.3286680447989,236.52236254627525L268.37200826879354,217.92287382933802L264.90899492584794,216.96714287384506" stroke-width="0" style="-webkit-tap-highlight-color: rgba(0, 0, 0, 0);"></path><path fill="#85f8d1" stroke="#000000" d="M262.3286680447989,236.52236254627525L264.04915264827235,237.16807121814628L271.73540947578186,219.1851794157695L268.37200826879354,217.92287382933802" stroke-width="0" style="-webkit-tap-highlight-color: rgba(0, 0, 0, 0);"></path><path fill="#85f8d1" stroke="#000000" d="M264.04915264827235,237.16807121814628L265.704830207447,237.965403507574L274.97211841794217,220.74389629078127L271.73540947578186,219.1851794157695" stroke-width="0" style="-webkit-tap-highlight-color: rgba(0, 0, 0, 0);"></path><path fill="#85bdf8" stroke="#000000" d="M265.704830207447,237.965403507574L267.2823701801391,238.9079397637877L278.05607501802615,222.5864745826064L274.97211841794217,220.74389629078127" stroke-width="0" style="-webkit-tap-highlight-color: rgba(0, 0, 0, 0);"></path><path fill="#85bdf8" stroke="#000000" d="M267.2823701801391,238.9079397637877L268.7690711420669,239.98809123905474L280.9624490708271,224.69807893425758L278.05607501802615,222.5864745826064" stroke-width="0" style="-webkit-tap-highlight-color: rgba(0, 0, 0, 0);"></path><path fill="#85bdf8" stroke="#000000" d="M268.7690711420669,239.98809123905474L270.152963051251,241.19716118881502L283.6678401613921,227.06170794909858L280.9624490708271,224.69807893425758" stroke-width="0" style="-webkit-tap-highlight-color: rgba(0, 0, 0, 0);"></path><path fill="#85bdf8" stroke="#000000" d="M270.152963051251,241.19716118881502L271.42290362375394,242.5254148927547L286.1504660714042,229.65833107609328L283.6678401613921,227.06170794909858" stroke-width="0" style="-webkit-tap-highlight-color: rgba(0, 0, 0, 0);"></path><path fill="#85bdf8" stroke="#000000" d="M271.42290362375394,242.5254148927547L272.5686680447989,243.96215803305014L288.39033815679625,232.46704183261278L286.1504660714042,229.65833107609328" stroke-width="0" style="-webkit-tap-highlight-color: rgba(0, 0, 0, 0);"></path><path fill="#85bdf8" stroke="#000000" d="M272.5686680447989,243.96215803305014L273.5810312929662,245.49582279872703L290.3694222845602,235.46522613114072L288.39033815679625,232.46704183261278" stroke-width="0" style="-webkit-tap-highlight-color: rgba(0, 0, 0, 0);"></path><path fill="#85bdf8" stroke="#000000" d="M273.5810312929662,245.49582279872703L274.45184241464153,247.11406102287242L292.0717840329819,238.62874435460924L290.3694222845602,235.46522613114072" stroke-width="0" style="-webkit-tap-highlight-color: rgba(0, 0, 0, 0);"></path><path fill="#85bdf8" stroke="#000000" d="M274.45184241464153,247.11406102287242L275.17409015070183,248.8038436028141L293.48371698623555,241.93212571440154L292.0717840329819,238.62874435460924" stroke-width="0" style="-webkit-tap-highlight-color: rgba(0, 0, 0, 0);"></path><path fill="#85bdf8" stroke="#000000" d="M275.17409015070183,248.8038436028141L275.74195938705105,250.5515654027945L294.59385309038475,245.34877332616534L293.48371698623555,241.93212571440154" stroke-width="0" style="-webkit-tap-highlight-color: rgba(0, 0, 0, 0);"></path><path fill="#85bdf8" stroke="#000000" d="M275.74195938705105,250.5515654027945L276.15087797449996,252.3431547945239L295.39325418226827,248.851178352287L294.59385309038475,245.34877332616534" stroke-width="0" style="-webkit-tap-highlight-color: rgba(0, 0, 0, 0);"></path><path fill="#b085f8" stroke="#000000" d="M276.15087797449996,252.3431547945239L276.3975535410225,254.1641869536577L295.8754839543345,252.41114148687697L295.39325418226827,248.851178352287" stroke-width="0" style="-webkit-tap-highlight-color: rgba(0, 0, 0, 0);"></path><path fill="#b085f8" stroke="#000000" d="M276.3975535410225,254.1641869536577L276.48,256L296.03665977600537,256L295.8754839543345,252.41114148687697" stroke-width="0" style="-webkit-tap-highlight-color: rgba(0, 0, 0, 0);"></path><path fill="#b085f8" stroke="#000000" d="M276.48,256L276.3975535410225,257.8358130463423L295.8754839543345,259.588858513123L296.03665977600537,256" stroke-width="0" style="-webkit-tap-highlight-color: rgba(0, 0, 0, 0);"></path><path fill="#b085f8" stroke="#000000" d="M276.3975535410225,257.8358130463423L276.15087797449996,259.6568452054761L295.39325418226827,263.148821647713L295.8754839543345,259.588858513123" stroke-width="0" style="-webkit-tap-highlight-color: rgba(0, 0, 0, 0);"></path><path fill="#b085f8" stroke="#000000" d="M276.15087797449996,259.6568452054761L275.74195938705105,261.4484345972055L294.59385309038475,266.6512266738347L295.39325418226827,263.148821647713" stroke-width="0" style="-webkit-tap-highlight-color: rgba(0, 0, 0, 0);"></path><path fill="#b085f8" stroke="#000000" d="M275.74195938705105,261.4484345972055L275.17409015070183,263.1961563971859L293.48371698623555,270.06787428559846L294.59385309038475,266.6512266738347" stroke-width="0" style="-webkit-tap-highlight-color: rgba(0, 0, 0, 0);"></path><path fill="#b085f8" stroke="#000000" d="M275.17409015070183,263.1961563971859L274.45184241464153,264.8859389771276L292.0717840329819,273.37125564539076L293.48371698623555,270.06787428559846" stroke-width="0" style="-webkit-tap-highlight-color: rgba(0, 0, 0, 0);"></path><path fill="#b085f8" stroke="#000000" d="M274.45184241464153,264.8859389771276L273.5810312929662,266.50417720127297L290.3694222845602,276.53477386885925L292.0717840329819,273.37125564539076" stroke-width="0" style="-webkit-tap-highlight-color: rgba(0, 0, 0, 0);"></path><path fill="#b085f8" stroke="#000000" d="M273.5810312929662,266.50417720127297L272.5686680447989,268.0378419669498L288.39033815679625,279.5329581673872L290.3694222845602,276.53477386885925" stroke-width="0" style="-webkit-tap-highlight-color: rgba(0, 0, 0, 0);"></path><path fill="#b085f8" stroke="#000000" d="M272.5686680447989,268.0378419669498L271.42290362375394,269.47458510724533L286.1504660714042,282.3416689239067L288.39033815679625,279.5329581673872" stroke-width="0" style="-webkit-tap-highlight-color: rgba(0, 0, 0, 0);"></path><path fill="#f885de" stroke="#000000" d="M271.42290362375394,269.47458510724533L270.152963051251,270.802838811185L283.6678401613921,284.9382920509014L286.1504660714042,282.3416689239067" stroke-width="0" style="-webkit-tap-highlight-color: rgba(0, 0, 0, 0);"></path><path fill="#f885de" stroke="#000000" d="M270.152963051251,270.802838811185L268.7690711420669,272.01190876094523L280.9624490708271,287.3019210657424L283.6678401613921,284.9382920509014" stroke-width="0" style="-webkit-tap-highlight-color: rgba(0, 0, 0, 0);"></path><path fill="#f885de" stroke="#000000" d="M268.7690711420669,272.01190876094523L267.2823701801391,273.09206023621226L278.0560750180262,289.4135254173936L280.9624490708271,287.3019210657424" stroke-width="0" style="-webkit-tap-highlight-color: rgba(0, 0, 0, 0);"></path><path fill="#f885de" stroke="#000000" d="M267.2823701801391,273.09206023621226L265.704830207447,274.034596492426L274.97211841794217,291.25610370921873L278.0560750180262,289.4135254173936" stroke-width="0" style="-webkit-tap-highlight-color: rgba(0, 0, 0, 0);"></path><path fill="#f885de" stroke="#000000" d="M265.704830207447,274.034596492426L264.04915264827235,274.8319287818537L271.73540947578186,292.81482058423046L274.97211841794217,291.25610370921873" stroke-width="0" style="-webkit-tap-highlight-color: rgba(0, 0, 0, 0);"></path><path fill="#f885de" stroke="#000000" d="M264.04915264827235,274.8319287818537L262.3286680447989,275.47763745372475L268.37200826879354,294.077126170662L271.73540947578186,292.81482058423046" stroke-width="0" style="-webkit-tap-highlight-color: rgba(0, 0, 0, 0);"></path><path fill="#f885de" stroke="#000000" d="M262.3286680447989,275.47763745372475L260.5572287274253,275.9665236414838L264.90899492584794,295.0328571261549L268.37200826879354,294.077126170662" stroke-width="0" style="-webkit-tap-highlight-color: rgba(0, 0, 0, 0);"></path><path fill="#f885de" stroke="#000000" d="M260.5572287274253,275.9665236414838L258.74909728394556,276.2946511210073L261.3742515941636,295.6743184670164L264.90899492584794,295.0328571261549" stroke-width="0" style="-webkit-tap-highlight-color: rgba(0, 0, 0, 0);"></path><path fill="#f885de" stroke="#000000" d="M258.74909728394556,276.2946511210073L256.91883172557857,276.45937800276613L257.79623794865176,295.9963455237029L261.3742515941636,295.6743184670164" stroke-width="0" style="-webkit-tap-highlight-color: rgba(0, 0, 0, 0);"></path><path fill="#f885de" stroke="#000000" d="M256.91883172557857,276.45937800276613L255.08116827442146,276.45937800276613L254.20376205134824,295.9963455237029L257.79623794865176,295.9963455237029" stroke-width="0" style="-webkit-tap-highlight-color: rgba(0, 0, 0, 0);"></path><path fill="#f88f85" stroke="#000000" d="M255.08116827442146,276.45937800276613L253.2509027160544,276.2946511210073L250.62574840583645,295.6743184670164L254.20376205134824,295.9963455237029" stroke-width="0" style="-webkit-tap-highlight-color: rgba(0, 0, 0, 0);"></path><path fill="#f88f85" stroke="#000000" d="M253.2509027160544,276.2946511210073L251.44277127257467,275.9665236414838L247.0910050741521,295.0328571261549L250.62574840583645,295.6743184670164" stroke-width="0" style="-webkit-tap-highlight-color: rgba(0, 0, 0, 0);"></path><path fill="#f88f85" stroke="#000000" d="M251.44277127257467,275.9665236414838L249.67133195520108,275.47763745372475L243.62799173120646,294.077126170662L247.0910050741521,295.0328571261549" stroke-width="0" style="-webkit-tap-highlight-color: rgba(0, 0, 0, 0);"></path><path fill="#f88f85" stroke="#000000" d="M249.67133195520108,275.47763745372475L247.95084735172765,274.8319287818537L240.2645905242181,292.8148205842305L243.62799173120646,294.077126170662" stroke-width="0" style="-webkit-tap-highlight-color: rgba(0, 0, 0, 0);"></path><path fill="#f88f85" stroke="#000000" d="M247.95084735172765,274.8319287818537L246.295169792553,274.034596492426L237.02788158205783,291.25610370921873L240.2645905242181,292.8148205842305" stroke-width="0" style="-webkit-tap-highlight-color: rgba(0, 0, 0, 0);"></path><path fill="#f88f85" stroke="#000000" d="M246.295169792553,274.034596492426L244.71762981986095,273.09206023621226L233.94392498197382,289.4135254173936L237.02788158205783,291.25610370921873" stroke-width="0" style="-webkit-tap-highlight-color: rgba(0, 0, 0, 0);"></path><path fill="#f88f85" stroke="#000000" d="M244.71762981986095,273.09206023621226L243.23092885793315,272.01190876094523L231.03755092917288,287.3019210657424L233.94392498197382,289.4135254173936" stroke-width="0" style="-webkit-tap-highlight-color: rgba(0, 0, 0, 0);"></path><path fill="#f88f85" stroke="#000000" d="M243.23092885793315,272.01190876094523L241.847036948749,270.802838811185L228.33215983860788,284.9382920509014L231.03755092917288,287.3019210657424" stroke-width="0" style="-webkit-tap-highlight-color: rgba(0, 0, 0, 0);"></path><path fill="#f88f85" stroke="#000000" d="M241.847036948749,270.802838811185L240.57709637624606,269.47458510724533L225.84953392859583,282.34166892390675L228.33215983860788,284.9382920509014" stroke-width="0" style="-webkit-tap-highlight-color: rgba(0, 0, 0, 0);"></path><path fill="#f88f85" stroke="#000000" d="M240.57709637624606,269.47458510724533L239.43133195520107,268.0378419669498L223.60966184320375,279.5329581673872L225.84953392859583,282.34166892390675" stroke-width="0" style="-webkit-tap-highlight-color: rgba(0, 0, 0, 0);"></path><path fill="#f8f285" stroke="#000000" d="M239.43133195520107,268.0378419669498L238.41896870703377,266.50417720127297L221.6305777154398,276.53477386885925L223.60966184320375,279.5329581673872" stroke-width="0" style="-webkit-tap-highlight-color: rgba(0, 0, 0, 0);"></path><path fill="#f8f285" stroke="#000000" d="M238.41896870703377,266.50417720127297L237.54815758535847,264.8859389771276L219.9282159670181,273.37125564539076L221.6305777154398,276.53477386885925" stroke-width="0" style="-webkit-tap-highlight-color: rgba(0, 0, 0, 0);"></path><path fill="#f8f285" stroke="#000000" d="M237.54815758535847,264.8859389771276L236.82590984929817,263.1961563971859L218.51628301376442,270.06787428559846L219.9282159670181,273.37125564539076" stroke-width="0" style="-webkit-tap-highlight-color: rgba(0, 0, 0, 0);"></path><path fill="#f8f285" stroke="#000000" d="M236.82590984929817,263.1961563971859L236.25804061294892,261.4484345972055L217.40614690961525,266.6512266738347L218.51628301376442,270.06787428559846" stroke-width="0" style="-webkit-tap-highlight-color: rgba(0, 0, 0, 0);"></path><path fill="#f8f285" stroke="#000000" d="M236.25804061294892,261.4484345972055L235.84912202550007,259.6568452054761L216.6067458177317,263.148821647713L217.40614690961525,266.6512266738347" stroke-width="0" style="-webkit-tap-highlight-color: rgba(0, 0, 0, 0);"></path><path fill="#f8f285" stroke="#000000" d="M235.84912202550007,259.6568452054761L235.6024464589775,257.8358130463423L216.12451604566544,259.588858513123L216.6067458177317,263.148821647713" stroke-width="0" style="-webkit-tap-highlight-color: rgba(0, 0, 0, 0);"></path><path fill="#f8f285" stroke="#000000" d="M235.6024464589775,257.8358130463423L235.51999999999998,256L215.9633402239946,256L216.12451604566544,259.588858513123" stroke-width="0" style="-webkit-tap-highlight-color: rgba(0, 0, 0, 0);"></path><path fill="#f8f285" stroke="#000000" d="M235.51999999999998,256L235.6024464589775,254.1641869536577L216.12451604566544,252.411141486877L215.9633402239946,256" stroke-width="0" style="-webkit-tap-highlight-color: rgba(0, 0, 0, 0);"></path><path fill="#f8f285" stroke="#000000" d="M235.6024464589775,254.1641869536577L235.84912202550007,252.3431547945239L216.6067458177317,248.851178352287L216.12451604566544,252.411141486877" stroke-width="0" style="-webkit-tap-highlight-color: rgba(0, 0, 0, 0);"></path><path fill="#f8f285" stroke="#000000" d="M235.84912202550007,252.3431547945239L236.25804061294892,250.5515654027945L217.40614690961525,245.34877332616534L216.6067458177317,248.851178352287" stroke-width="0" style="-webkit-tap-highlight-color: rgba(0, 0, 0, 0);"></path><path fill="#9cf885" stroke="#000000" d="M236.25804061294892,250.5515654027945L236.82590984929817,248.8038436028141L218.51628301376442,241.93212571440154L217.40614690961525,245.34877332616534" stroke-width="0" style="-webkit-tap-highlight-color: rgba(0, 0, 0, 0);"></path><path fill="#9cf885" stroke="#000000" d="M236.82590984929817,248.8038436028141L237.54815758535844,247.11406102287242L219.9282159670181,238.62874435460924L218.51628301376442,241.93212571440154" stroke-width="0" style="-webkit-tap-highlight-color: rgba(0, 0, 0, 0);"></path><path fill="#9cf885" stroke="#000000" d="M237.54815758535844,247.11406102287242L238.41896870703377,245.49582279872703L221.6305777154398,235.46522613114072L219.9282159670181,238.62874435460924" stroke-width="0" style="-webkit-tap-highlight-color: rgba(0, 0, 0, 0);"></path><path fill="#9cf885" stroke="#000000" d="M238.41896870703377,245.49582279872703L239.43133195520107,243.96215803305014L223.60966184320375,232.46704183261278L221.6305777154398,235.46522613114072" stroke-width="0" style="-webkit-tap-highlight-color: rgba(0, 0, 0, 0);"></path><path fill="#9cf885" stroke="#000000" d="M239.43133195520107,243.96215803305014L240.57709637624603,242.5254148927547L225.8495339285958,229.65833107609328L223.60966184320375,232.46704183261278" stroke-width="0" style="-webkit-tap-highlight-color: rgba(0, 0, 0, 0);"></path><path fill="#9cf885" stroke="#000000" d="M240.57709637624603,242.5254148927547L241.847036948749,241.19716118881502L228.33215983860785,227.0617079490986L225.8495339285958,229.65833107609328" stroke-width="0" style="-webkit-tap-highlight-color: rgba(0, 0, 0, 0);"></path><path fill="#9cf885" stroke="#000000" d="M241.847036948749,241.19716118881502L243.23092885793312,239.98809123905474L231.03755092917288,224.69807893425758L228.33215983860785,227.0617079490986" stroke-width="0" style="-webkit-tap-highlight-color: rgba(0, 0, 0, 0);"></path><path fill="#9cf885" stroke="#000000" d="M243.23092885793312,239.98809123905474L244.71762981986095,238.9079397637877L233.94392498197382,222.5864745826064L231.03755092917288,224.69807893425758" stroke-width="0" style="-webkit-tap-highlight-color: rgba(0, 0, 0, 0);"></path><path fill="#9cf885" stroke="#000000" d="M244.71762981986095,238.9079397637877L246.29516979255297,237.965403507574L237.0278815820578,220.74389629078127L233.94392498197382,222.5864745826064" stroke-width="0" style="-webkit-tap-highlight-color: rgba(0, 0, 0, 0);"></path><path fill="#9cf885" stroke="#000000" d="M246.29516979255297,237.965403507574L247.95084735172765,237.16807121814628L240.2645905242181,219.1851794157695L237.0278815820578,220.74389629078127" stroke-width="0" style="-webkit-tap-highlight-color: rgba(0, 0, 0, 0);"></path><path fill="#85f8d1" stroke="#000000" d="M247.95084735172765,237.16807121814628L249.67133195520108,236.52236254627525L243.62799173120646,217.92287382933802L240.2645905242181,219.1851794157695" stroke-width="0" style="-webkit-tap-highlight-color: rgba(0, 0, 0, 0);"></path><path fill="#85f8d1" stroke="#000000" d="M249.67133195520108,236.52236254627525L251.44277127257467,236.03347635851625L247.09100507415206,216.9671428738451L243.62799173120646,217.92287382933802" stroke-width="0" style="-webkit-tap-highlight-color: rgba(0, 0, 0, 0);"></path><path fill="#85f8d1" stroke="#000000" d="M251.44277127257467,236.03347635851625L253.2509027160544,235.7053488789927L250.62574840583642,216.3256815329836L247.09100507415206,216.9671428738451" stroke-width="0" style="-webkit-tap-highlight-color: rgba(0, 0, 0, 0);"></path><path fill="#85f8d1" stroke="#000000" d="M253.2509027160544,235.7053488789927L255.08116827442146,235.54062199723387L254.20376205134824,216.00365447629707L250.62574840583642,216.3256815329836" stroke-width="0" style="-webkit-tap-highlight-color: rgba(0, 0, 0, 0);"></path><path fill="#85f8d1" stroke="#000000" d="M255.08116827442146,235.54062199723387L256.9188317255785,235.54062199723387L257.79623794865176,216.00365447629707L254.20376205134824,216.00365447629707" stroke-width="0" style="-webkit-tap-highlight-color: rgba(0, 0, 0, 0);"></path><path fill="#55f6be" stroke="#000000" d="M257.79623794865176,216.00365447629707L261.3742515941636,216.3256815329836L268.2469948040275,165.58905373046537L260.09331726259813,164.85520946938175" stroke-width="0" style="-webkit-tap-highlight-color: rgba(0, 0, 0, 0);"></path><path fill="#55f6be" stroke="#000000" d="M261.3742515941636,216.3256815329836L264.90899492584794,216.96714287384506L276.3020667444112,167.0508337701357L268.2469948040275,165.58905373046537" stroke-width="0" style="-webkit-tap-highlight-color: rgba(0, 0, 0, 0);"></path><path fill="#55f6be" stroke="#000000" d="M264.90899492584794,216.96714287384506L268.37200826879354,217.92287382933802L284.19367838079086,169.22878019502616L276.3020667444112,167.0508337701357" stroke-width="0" style="-webkit-tap-highlight-color: rgba(0, 0, 0, 0);"></path><path fill="#55f6be" stroke="#000000" d="M268.37200826879354,217.92287382933802L271.73540947578186,219.1851794157695L291.8582910964628,172.1053574611352L284.19367838079086,169.22878019502616" stroke-width="0" style="-webkit-tap-highlight-color: rgba(0, 0, 0, 0);"></path><path fill="#55f6be" stroke="#000000" d="M271.73540947578186,219.1851794157695L274.97211841794217,220.74389629078127L299.2341939365597,175.65740505971627L291.8582910964628,172.1053574611352" stroke-width="0" style="-webkit-tap-highlight-color: rgba(0, 0, 0, 0);"></path><path fill="#55a3f6" stroke="#000000" d="M274.97211841794217,220.74389629078127L278.05607501802615,222.5864745826064L306.2620004683738,179.8563239920757L299.2341939365597,175.65740505971627" stroke-width="0" style="-webkit-tap-highlight-color: rgba(0, 0, 0, 0);"></path><path fill="#55a3f6" stroke="#000000" d="M278.05607501802615,222.5864745826064L280.9624490708271,224.69807893425758L312.88512692599426,184.66830703189444L306.2620004683738,179.8563239920757" stroke-width="0" style="-webkit-tap-highlight-color: rgba(0, 0, 0, 0);"></path><path fill="#55a3f6" stroke="#000000" d="M280.9624490708271,224.69807893425758L283.6678401613921,227.06170794909858L319.05024778951963,190.05461092113615L312.88512692599426,184.66830703189444" stroke-width="0" style="-webkit-tap-highlight-color: rgba(0, 0, 0, 0);"></path><path fill="#55a3f6" stroke="#000000" d="M283.6678401613921,227.06170794909858L286.1504660714042,229.65833107609328L324.7077251307891,195.97186830798L319.05024778951963,190.05461092113615" stroke-width="0" style="-webkit-tap-highlight-color: rgba(0, 0, 0, 0);"></path><path fill="#55a3f6" stroke="#000000" d="M286.1504660714042,229.65833107609328L288.39033815679625,232.46704183261278L329.81200826879353,202.37243691523815L324.7077251307891,195.97186830798" stroke-width="0" style="-webkit-tap-highlight-color: rgba(0, 0, 0, 0);"></path><path fill="#55a3f6" stroke="#000000" d="M288.39033815679625,232.46704183261278L290.3694222845602,235.46522613114072L334.3220005169757,209.20478312795834L329.81200826879353,202.37243691523815" stroke-width="0" style="-webkit-tap-highlight-color: rgba(0, 0, 0, 0);"></path><path fill="#55a3f6" stroke="#000000" d="M290.3694222845602,235.46522613114072L292.0717840329819,238.62874435460924L338.2013900695857,216.41389691179026L334.3220005169757,209.20478312795834" stroke-width="0" style="-webkit-tap-highlight-color: rgba(0, 0, 0, 0);"></path><path fill="#55a3f6" stroke="#000000" d="M292.0717840329819,238.62874435460924L293.48371698623555,241.93212571440154L341.4189423629901,223.94173472143677L338.2013900695857,216.41389691179026" stroke-width="0" style="-webkit-tap-highlight-color: rgba(0, 0, 0, 0);"></path><path fill="#55a3f6" stroke="#000000" d="M293.48371698623555,241.93212571440154L294.59385309038475,245.34877332616534L343.9487515580124,231.72768683315158L341.4189423629901,223.94173472143677" stroke-width="0" style="-webkit-tap-highlight-color: rgba(0, 0, 0, 0);"></path><path fill="#55a3f6" stroke="#000000" d="M294.59385309038475,245.34877332616534L295.39325418226827,248.851178352287L345.7704491185181,239.7090653385968L343.9487515580124,231.72768683315158" stroke-width="0" style="-webkit-tap-highlight-color: rgba(0, 0, 0, 0);"></path><path fill="#9155f6" stroke="#000000" d="M295.39325418226827,248.851178352287L295.8754839543345,252.41114148687697L346.8693678068908,247.82160887102117L345.7704491185181,239.7090653385968" stroke-width="0" style="-webkit-tap-highlight-color: rgba(0, 0, 0, 0);"></path><path fill="#9155f6" stroke="#000000" d="M295.8754839543345,252.41114148687697L296.03665977600537,256L347.23665977600535,256L346.8693678068908,247.82160887102117" stroke-width="0" style="-webkit-tap-highlight-color: rgba(0, 0, 0, 0);"></path><path fill="#9155f6" stroke="#000000" d="M296.03665977600537,256L295.8754839543345,259.588858513123L346.8693678068908,264.17839112897883L347.23665977600535,256" stroke-width="0" style="-webkit-tap-highlight-color: rgba(0, 0, 0, 0);"></path><path fill="#9155f6" stroke="#000000" d="M295.8754839543345,259.588858513123L295.39325418226827,263.148821647713L345.7704491185181,272.2909346614032L346.8693678068908,264.17839112897883" stroke-width="0" style="-webkit-tap-highlight-color: rgba(0, 0, 0, 0);"></path><path fill="#9155f6" stroke="#000000" d="M295.39325418226827,263.148821647713L294.59385309038475,266.6512266738347L343.9487515580124,280.27231316684845L345.7704491185181,272.2909346614032" stroke-width="0" style="-webkit-tap-highlight-color: rgba(0, 0, 0, 0);"></path><path fill="#9155f6" stroke="#000000" d="M294.59385309038475,266.6512266738347L293.48371698623555,270.06787428559846L341.4189423629901,288.0582652785632L343.9487515580124,280.27231316684845" stroke-width="0" style="-webkit-tap-highlight-color: rgba(0, 0, 0, 0);"></path><path fill="#9155f6" stroke="#000000" d="M293.48371698623555,270.06787428559846L292.0717840329819,273.37125564539076L338.2013900695857,295.5861030882097L341.4189423629901,288.0582652785632" stroke-width="0" style="-webkit-tap-highlight-color: rgba(0, 0, 0, 0);"></path><path fill="#9155f6" stroke="#000000" d="M292.0717840329819,273.37125564539076L290.3694222845602,276.53477386885925L334.3220005169757,302.79521687204164L338.2013900695857,295.5861030882097" stroke-width="0" style="-webkit-tap-highlight-color: rgba(0, 0, 0, 0);"></path><path fill="#9155f6" stroke="#000000" d="M290.3694222845602,276.53477386885925L288.39033815679625,279.5329581673872L329.81200826879353,309.62756308476185L334.3220005169757,302.79521687204164" stroke-width="0" style="-webkit-tap-highlight-color: rgba(0, 0, 0, 0);"></path><path fill="#9155f6" stroke="#000000" d="M288.39033815679625,279.5329581673872L286.1504660714042,282.3416689239067L324.7077251307891,316.02813169202L329.81200826879353,309.62756308476185" stroke-width="0" style="-webkit-tap-highlight-color: rgba(0, 0, 0, 0);"></path><path fill="#f655d1" stroke="#000000" d="M286.1504660714042,282.3416689239067L283.6678401613921,284.9382920509014L319.05024778951963,321.94538907886385L324.7077251307891,316.02813169202" stroke-width="0" style="-webkit-tap-highlight-color: rgba(0, 0, 0, 0);"></path><path fill="#f655d1" stroke="#000000" d="M283.6678401613921,284.9382920509014L280.9624490708271,287.3019210657424L312.8851269259943,327.33169296810553L319.05024778951963,321.94538907886385" stroke-width="0" style="-webkit-tap-highlight-color: rgba(0, 0, 0, 0);"></path><path fill="#f655d1" stroke="#000000" d="M280.9624490708271,287.3019210657424L278.0560750180262,289.4135254173936L306.26200046837386,332.14367600792434L312.8851269259943,327.33169296810553" stroke-width="0" style="-webkit-tap-highlight-color: rgba(0, 0, 0, 0);"></path><path fill="#f655d1" stroke="#000000" d="M278.0560750180262,289.4135254173936L274.97211841794217,291.25610370921873L299.23419393655973,336.34259494028373L306.26200046837386,332.14367600792434" stroke-width="0" style="-webkit-tap-highlight-color: rgba(0, 0, 0, 0);"></path><path fill="#f655d1" stroke="#000000" d="M274.97211841794217,291.25610370921873L271.73540947578186,292.81482058423046L291.8582910964628,339.8946425388648L299.23419393655973,336.34259494028373" stroke-width="0" style="-webkit-tap-highlight-color: rgba(0, 0, 0, 0);"></path><path fill="#f655d1" stroke="#000000" d="M271.73540947578186,292.81482058423046L268.37200826879354,294.077126170662L284.19367838079086,342.77121980497384L291.8582910964628,339.8946425388648" stroke-width="0" style="-webkit-tap-highlight-color: rgba(0, 0, 0, 0);"></path><path fill="#f655d1" stroke="#000000" d="M268.37200826879354,294.077126170662L264.90899492584794,295.0328571261549L276.3020667444112,344.9491662298643L284.19367838079086,342.77121980497384" stroke-width="0" style="-webkit-tap-highlight-color: rgba(0, 0, 0, 0);"></path><path fill="#f655d1" stroke="#000000" d="M264.90899492584794,295.0328571261549L261.3742515941636,295.6743184670164L268.2469948040275,346.41094626953463L276.3020667444112,344.9491662298643" stroke-width="0" style="-webkit-tap-highlight-color: rgba(0, 0, 0, 0);"></path><path fill="#f655d1" stroke="#000000" d="M261.3742515941636,295.6743184670164L257.79623794865176,295.9963455237029L260.09331726259813,347.14479053061825L268.2469948040275,346.41094626953463" stroke-width="0" style="-webkit-tap-highlight-color: rgba(0, 0, 0, 0);"></path><path fill="#f655d1" stroke="#000000" d="M257.79623794865176,295.9963455237029L254.20376205134824,295.9963455237029L251.9066827374019,347.14479053061825L260.09331726259813,347.14479053061825" stroke-width="0" style="-webkit-tap-highlight-color: rgba(0, 0, 0, 0);"></path><path fill="#f66355" stroke="#000000" d="M254.20376205134824,295.9963455237029L250.62574840583645,295.6743184670164L243.7530051959725,346.41094626953463L251.9066827374019,347.14479053061825" stroke-width="0" style="-webkit-tap-highlight-color: rgba(0, 0, 0, 0);"></path><path fill="#f66355" stroke="#000000" d="M250.62574840583645,295.6743184670164L247.0910050741521,295.0328571261549L235.6979332555888,344.9491662298643L243.7530051959725,346.41094626953463" stroke-width="0" style="-webkit-tap-highlight-color: rgba(0, 0, 0, 0);"></path><path fill="#f66355" stroke="#000000" d="M247.0910050741521,295.0328571261549L243.62799173120646,294.077126170662L227.80632161920917,342.77121980497384L235.6979332555888,344.9491662298643" stroke-width="0" style="-webkit-tap-highlight-color: rgba(0, 0, 0, 0);"></path><path fill="#f66355" stroke="#000000" d="M243.62799173120646,294.077126170662L240.2645905242181,292.8148205842305L220.14170890353722,339.8946425388648L227.80632161920917,342.77121980497384" stroke-width="0" style="-webkit-tap-highlight-color: rgba(0, 0, 0, 0);"></path><path fill="#f66355" stroke="#000000" d="M240.2645905242181,292.8148205842305L237.02788158205783,291.25610370921873L212.7658060634403,336.34259494028373L220.14170890353722,339.8946425388648" stroke-width="0" style="-webkit-tap-highlight-color: rgba(0, 0, 0, 0);"></path><path fill="#f66355" stroke="#000000" d="M237.02788158205783,291.25610370921873L233.94392498197382,289.4135254173936L205.7379995316262,332.14367600792434L212.7658060634403,336.34259494028373" stroke-width="0" style="-webkit-tap-highlight-color: rgba(0, 0, 0, 0);"></path><path fill="#f66355" stroke="#000000" d="M233.94392498197382,289.4135254173936L231.03755092917288,287.3019210657424L199.11487307400574,327.3316929681056L205.7379995316262,332.14367600792434" stroke-width="0" style="-webkit-tap-highlight-color: rgba(0, 0, 0, 0);"></path><path fill="#f66355" stroke="#000000" d="M231.03755092917288,287.3019210657424L228.33215983860788,284.9382920509014L192.94975221048043,321.94538907886385L199.11487307400574,327.3316929681056" stroke-width="0" style="-webkit-tap-highlight-color: rgba(0, 0, 0, 0);"></path><path fill="#f66355" stroke="#000000" d="M228.33215983860788,284.9382920509014L225.84953392859583,282.34166892390675L187.29227486921096,316.02813169202L192.94975221048043,321.94538907886385" stroke-width="0" style="-webkit-tap-highlight-color: rgba(0, 0, 0, 0);"></path><path fill="#f66355" stroke="#000000" d="M225.84953392859583,282.34166892390675L223.60966184320375,279.5329581673872L182.18799173120647,309.62756308476185L187.29227486921096,316.02813169202" stroke-width="0" style="-webkit-tap-highlight-color: rgba(0, 0, 0, 0);"></path><path fill="#f6ec55" stroke="#000000" d="M223.60966184320375,279.5329581673872L221.6305777154398,276.53477386885925L177.67799948302428,302.7952168720417L182.18799173120647,309.62756308476185" stroke-width="0" style="-webkit-tap-highlight-color: rgba(0, 0, 0, 0);"></path><path fill="#f6ec55" stroke="#000000" d="M221.6305777154398,276.53477386885925L219.9282159670181,273.37125564539076L173.79860993041427,295.58610308820977L177.67799948302428,302.7952168720417" stroke-width="0" style="-webkit-tap-highlight-color: rgba(0, 0, 0, 0);"></path><path fill="#f6ec55" stroke="#000000" d="M219.9282159670181,273.37125564539076L218.51628301376442,270.06787428559846L170.5810576370099,288.0582652785632L173.79860993041427,295.58610308820977" stroke-width="0" style="-webkit-tap-highlight-color: rgba(0, 0, 0, 0);"></path><path fill="#f6ec55" stroke="#000000" d="M218.51628301376442,270.06787428559846L217.40614690961525,266.6512266738347L168.05124844198758,280.27231316684845L170.5810576370099,288.0582652785632" stroke-width="0" style="-webkit-tap-highlight-color: rgba(0, 0, 0, 0);"></path><path fill="#f6ec55" stroke="#000000" d="M217.40614690961525,266.6512266738347L216.6067458177317,263.148821647713L166.22955088148188,272.2909346614032L168.05124844198758,280.27231316684845" stroke-width="0" style="-webkit-tap-highlight-color: rgba(0, 0, 0, 0);"></path><path fill="#f6ec55" stroke="#000000" d="M216.6067458177317,263.148821647713L216.12451604566544,259.588858513123L165.13063219310922,264.17839112897883L166.22955088148188,272.2909346614032" stroke-width="0" style="-webkit-tap-highlight-color: rgba(0, 0, 0, 0);"></path><path fill="#f6ec55" stroke="#000000" d="M216.12451604566544,259.588858513123L215.9633402239946,256L164.76334022399462,256L165.13063219310922,264.17839112897883" stroke-width="0" style="-webkit-tap-highlight-color: rgba(0, 0, 0, 0);"></path><path fill="#f6ec55" stroke="#000000" d="M215.9633402239946,256L216.12451604566544,252.411141486877L165.1306321931092,247.8216088710212L164.76334022399462,256" stroke-width="0" style="-webkit-tap-highlight-color: rgba(0, 0, 0, 0);"></path><path fill="#f6ec55" stroke="#000000" d="M216.12451604566544,252.411141486877L216.6067458177317,248.851178352287L166.22955088148188,239.70906533859682L165.1306321931092,247.8216088710212" stroke-width="0" style="-webkit-tap-highlight-color: rgba(0, 0, 0, 0);"></path><path fill="#f6ec55" stroke="#000000" d="M216.6067458177317,248.851178352287L217.40614690961525,245.34877332616534L168.05124844198755,231.7276868331516L166.22955088148188,239.70906533859682" stroke-width="0" style="-webkit-tap-highlight-color: rgba(0, 0, 0, 0);"></path><path fill="#75f655" stroke="#000000" d="M217.40614690961525,245.34877332616534L218.51628301376442,241.93212571440154L170.58105763700988,223.9417347214368L168.05124844198755,231.7276868331516" stroke-width="0" style="-webkit-tap-highlight-color: rgba(0, 0, 0, 0);"></path><path fill="#75f655" stroke="#000000" d="M218.51628301376442,241.93212571440154L219.9282159670181,238.62874435460924L173.79860993041424,216.4138969117903L170.58105763700988,223.9417347214368" stroke-width="0" style="-webkit-tap-highlight-color: rgba(0, 0, 0, 0);"></path><path fill="#75f655" stroke="#000000" d="M219.9282159670181,238.62874435460924L221.6305777154398,235.46522613114072L177.67799948302428,209.20478312795836L173.79860993041424,216.4138969117903" stroke-width="0" style="-webkit-tap-highlight-color: rgba(0, 0, 0, 0);"></path><path fill="#75f655" stroke="#000000" d="M221.6305777154398,235.46522613114072L223.60966184320375,232.46704183261278L182.18799173120647,202.37243691523815L177.67799948302428,209.20478312795836" stroke-width="0" style="-webkit-tap-highlight-color: rgba(0, 0, 0, 0);"></path><path fill="#75f655" stroke="#000000" d="M223.60966184320375,232.46704183261278L225.8495339285958,229.65833107609328L187.29227486921093,195.97186830798L182.18799173120647,202.37243691523815" stroke-width="0" style="-webkit-tap-highlight-color: rgba(0, 0, 0, 0);"></path><path fill="#75f655" stroke="#000000" d="M225.8495339285958,229.65833107609328L228.33215983860785,227.0617079490986L192.9497522104804,190.05461092113615L187.29227486921093,195.97186830798" stroke-width="0" style="-webkit-tap-highlight-color: rgba(0, 0, 0, 0);"></path><path fill="#75f655" stroke="#000000" d="M228.33215983860785,227.0617079490986L231.03755092917288,224.69807893425758L199.11487307400571,184.66830703189447L192.9497522104804,190.05461092113615" stroke-width="0" style="-webkit-tap-highlight-color: rgba(0, 0, 0, 0);"></path><path fill="#75f655" stroke="#000000" d="M231.03755092917288,224.69807893425758L233.94392498197382,222.5864745826064L205.73799953162614,179.85632399207572L199.11487307400571,184.66830703189447" stroke-width="0" style="-webkit-tap-highlight-color: rgba(0, 0, 0, 0);"></path><path fill="#75f655" stroke="#000000" d="M233.94392498197382,222.5864745826064L237.0278815820578,220.74389629078127L212.76580606344027,175.6574050597163L205.73799953162614,179.85632399207572" stroke-width="0" style="-webkit-tap-highlight-color: rgba(0, 0, 0, 0);"></path><path fill="#75f655" stroke="#000000" d="M237.0278815820578,220.74389629078127L240.2645905242181,219.1851794157695L220.14170890353722,172.10535746113524L212.76580606344027,175.6574050597163" stroke-width="0" style="-webkit-tap-highlight-color: rgba(0, 0, 0, 0);"></path><path fill="#55f6be" stroke="#000000" d="M240.2645905242181,219.1851794157695L243.62799173120646,217.92287382933802L227.80632161920914,169.22878019502616L220.14170890353722,172.10535746113524" stroke-width="0" style="-webkit-tap-highlight-color: rgba(0, 0, 0, 0);"></path><path fill="#55f6be" stroke="#000000" d="M243.62799173120646,217.92287382933802L247.09100507415206,216.9671428738451L235.69793325558877,167.0508337701357L227.80632161920914,169.22878019502616" stroke-width="0" style="-webkit-tap-highlight-color: rgba(0, 0, 0, 0);"></path><path fill="#55f6be" stroke="#000000" d="M247.09100507415206,216.9671428738451L250.62574840583642,216.3256815329836L243.75300519597246,165.58905373046537L235.69793325558877,167.0508337701357" stroke-width="0" style="-webkit-tap-highlight-color: rgba(0, 0, 0, 0);"></path><path fill="#55f6be" stroke="#000000" d="M250.62574840583642,216.3256815329836L254.20376205134824,216.00365447629707L251.90668273740184,164.85520946938178L243.75300519597246,165.58905373046537" stroke-width="0" style="-webkit-tap-highlight-color: rgba(0, 0, 0, 0);"></path><path fill="#55f6be" stroke="#000000" d="M254.20376205134824,216.00365447629707L257.79623794865176,216.00365447629707L260.09331726259813,164.85520946938175L251.90668273740184,164.85520946938178" stroke-width="0" style="-webkit-tap-highlight-color: rgba(0, 0, 0, 0);"></path><path fill="#24f3ac" stroke="#000000" d="M260.09331726259813,164.85520946938175L268.2469948040275,165.58905373046537L276.7421726033195,102.87513281744697L262.9326634443444,101.63225449742473" stroke-width="0" style="-webkit-tap-highlight-color: rgba(0, 0, 0, 0);"></path><path fill="#24f3ac" stroke="#000000" d="M268.2469948040275,165.58905373046537L276.3020667444112,167.0508337701357L290.3846779846926,105.3508825320593L276.7421726033195,102.87513281744697" stroke-width="0" style="-webkit-tap-highlight-color: rgba(0, 0, 0, 0);"></path><path fill="#24f3ac" stroke="#000000" d="M276.3020667444112,167.0508337701357L284.19367838079086,169.22878019502616L303.75033815679626,109.03957036027688L290.3846779846926,105.3508825320593" stroke-width="0" style="-webkit-tap-highlight-color: rgba(0, 0, 0, 0);"></path><path fill="#24f3ac" stroke="#000000" d="M284.19367838079086,169.22878019502616L291.8582910964628,172.1053574611352L316.73154068280553,113.91149715662024L303.75033815679626,109.03957036027688" stroke-width="0" style="-webkit-tap-highlight-color: rgba(0, 0, 0, 0);"></path><path fill="#24f3ac" stroke="#000000" d="M291.8582910964628,172.1053574611352L299.2341939365597,175.65740505971627L329.2237685528045,119.92743703117176L316.73154068280553,113.91149715662024" stroke-width="0" style="-webkit-tap-highlight-color: rgba(0, 0, 0, 0);"></path><path fill="#2489f3" stroke="#000000" d="M299.2341939365597,175.65740505971627L306.2620004683738,179.8563239920757L341.1264416932949,127.03895317337697L329.2237685528045,119.92743703117176" stroke-width="0" style="-webkit-tap-highlight-color: rgba(0, 0, 0, 0);"></path><path fill="#2489f3" stroke="#000000" d="M306.2620004683738,179.8563239920757L312.88512692599426,184.66830703189444L352.3437267788081,135.18878783676251L341.1264416932949,127.03895317337697" stroke-width="0" style="-webkit-tap-highlight-color: rgba(0, 0, 0, 0);"></path><path fill="#2489f3" stroke="#000000" d="M312.88512692599426,184.66830703189444L319.05024778951963,190.05461092113615L362.7853088254923,144.3113233446441L352.3437267788081,135.18878783676251" stroke-width="0" style="-webkit-tap-highlight-color: rgba(0, 0, 0, 0);"></path><path fill="#2489f3" stroke="#000000" d="M319.05024778951963,190.05461092113615L324.7077251307891,195.97186830798L372.36711835425837,154.33311040507624L362.7853088254923,144.3113233446441" stroke-width="0" style="-webkit-tap-highlight-color: rgba(0, 0, 0, 0);"></path><path fill="#2489f3" stroke="#000000" d="M324.7077251307891,195.97186830798L329.81200826879353,202.37243691523815L381.0120082687936,165.17345948136364L372.36711835425837,154.33311040507624" stroke-width="0" style="-webkit-tap-highlight-color: rgba(0, 0, 0, 0);"></path><path fill="#2489f3" stroke="#000000" d="M329.81200826879353,202.37243691523815L334.3220005169757,209.20478312795834L388.6503749986189,176.74509045676615L381.0120082687936,165.17345948136364" stroke-width="0" style="-webkit-tap-highlight-color: rgba(0, 0, 0, 0);"></path><path fill="#2489f3" stroke="#000000" d="M334.3220005169757,209.20478312795834L338.2013900695857,216.41389691179026L395.2207189061128,188.95483536267864L388.6503749986189,176.74509045676615" stroke-width="0" style="-webkit-tap-highlight-color: rgba(0, 0, 0, 0);"></path><path fill="#2489f3" stroke="#000000" d="M338.2013900695857,216.41389691179026L341.4189423629901,223.94173472143677L400.6701394454317,201.7043885123324L395.2207189061128,188.95483536267864" stroke-width="0" style="-webkit-tap-highlight-color: rgba(0, 0, 0, 0);"></path><path fill="#2489f3" stroke="#000000" d="M341.4189423629901,223.94173472143677L343.9487515580124,231.72768683315158L404.95476108660046,214.89109800038233L400.6701394454317,201.7043885123324" stroke-width="0" style="-webkit-tap-highlight-color: rgba(0, 0, 0, 0);"></path><path fill="#2489f3" stroke="#000000" d="M343.9487515580124,231.72768683315158L345.7704491185181,239.7090653385968L408.04008657548115,228.40879219569024L404.95476108660046,214.89109800038233" stroke-width="0" style="-webkit-tap-highlight-color: rgba(0, 0, 0, 0);"></path><path fill="#7124f3" stroke="#000000" d="M345.7704491185181,239.7090653385968L346.8693678068908,247.82160887102117L409.9012746853792,242.14863457287098L408.04008657548115,228.40879219569024" stroke-width="0" style="-webkit-tap-highlight-color: rgba(0, 0, 0, 0);"></path><path fill="#7124f3" stroke="#000000" d="M346.8693678068908,247.82160887102117L347.23665977600535,256L410.52334022399464,256L409.9012746853792,242.14863457287098" stroke-width="0" style="-webkit-tap-highlight-color: rgba(0, 0, 0, 0);"></path><path fill="#7124f3" stroke="#000000" d="M347.23665977600535,256L346.8693678068908,264.17839112897883L409.9012746853792,269.851365427129L410.52334022399464,256" stroke-width="0" style="-webkit-tap-highlight-color: rgba(0, 0, 0, 0);"></path><path fill="#7124f3" stroke="#000000" d="M346.8693678068908,264.17839112897883L345.7704491185181,272.2909346614032L408.04008657548115,283.59120780430976L409.9012746853792,269.851365427129" stroke-width="0" style="-webkit-tap-highlight-color: rgba(0, 0, 0, 0);"></path><path fill="#7124f3" stroke="#000000" d="M345.7704491185181,272.2909346614032L343.9487515580124,280.27231316684845L404.95476108660046,297.1089019996177L408.04008657548115,283.59120780430976" stroke-width="0" style="-webkit-tap-highlight-color: rgba(0, 0, 0, 0);"></path><path fill="#7124f3" stroke="#000000" d="M343.9487515580124,280.27231316684845L341.4189423629901,288.0582652785632L400.6701394454317,310.29561148766754L404.95476108660046,297.1089019996177" stroke-width="0" style="-webkit-tap-highlight-color: rgba(0, 0, 0, 0);"></path><path fill="#7124f3" stroke="#000000" d="M341.4189423629901,288.0582652785632L338.2013900695857,295.5861030882097L395.2207189061128,323.04516463732136L400.6701394454317,310.29561148766754" stroke-width="0" style="-webkit-tap-highlight-color: rgba(0, 0, 0, 0);"></path><path fill="#7124f3" stroke="#000000" d="M338.2013900695857,295.5861030882097L334.3220005169757,302.79521687204164L388.6503749986189,335.2549095432338L395.2207189061128,323.04516463732136" stroke-width="0" style="-webkit-tap-highlight-color: rgba(0, 0, 0, 0);"></path><path fill="#7124f3" stroke="#000000" d="M334.3220005169757,302.79521687204164L329.81200826879353,309.62756308476185L381.0120082687936,346.8265405186363L388.6503749986189,335.2549095432338" stroke-width="0" style="-webkit-tap-highlight-color: rgba(0, 0, 0, 0);"></path><path fill="#7124f3" stroke="#000000" d="M329.81200826879353,309.62756308476185L324.7077251307891,316.02813169202L372.3671183542584,357.66688959492376L381.0120082687936,346.8265405186363" stroke-width="0" style="-webkit-tap-highlight-color: rgba(0, 0, 0, 0);"></path><path fill="#f324c4" stroke="#000000" d="M324.7077251307891,316.02813169202L319.05024778951963,321.94538907886385L362.7853088254923,367.6886766553559L372.3671183542584,357.66688959492376" stroke-width="0" style="-webkit-tap-highlight-color: rgba(0, 0, 0, 0);"></path><path fill="#f324c4" stroke="#000000" d="M319.05024778951963,321.94538907886385L312.8851269259943,327.33169296810553L352.3437267788081,376.8112121632374L362.7853088254923,367.6886766553559" stroke-width="0" style="-webkit-tap-highlight-color: rgba(0, 0, 0, 0);"></path><path fill="#f324c4" stroke="#000000" d="M312.8851269259943,327.33169296810553L306.26200046837386,332.14367600792434L341.1264416932949,384.96104682662303L352.3437267788081,376.8112121632374" stroke-width="0" style="-webkit-tap-highlight-color: rgba(0, 0, 0, 0);"></path><path fill="#f324c4" stroke="#000000" d="M306.26200046837386,332.14367600792434L299.23419393655973,336.34259494028373L329.2237685528045,392.07256296882827L341.1264416932949,384.96104682662303" stroke-width="0" style="-webkit-tap-highlight-color: rgba(0, 0, 0, 0);"></path><path fill="#f324c4" stroke="#000000" d="M299.23419393655973,336.34259494028373L291.8582910964628,339.8946425388648L316.73154068280553,398.08850284337973L329.2237685528045,392.07256296882827" stroke-width="0" style="-webkit-tap-highlight-color: rgba(0, 0, 0, 0);"></path><path fill="#f324c4" stroke="#000000" d="M291.8582910964628,339.8946425388648L284.19367838079086,342.77121980497384L303.75033815679626,402.9604296397231L316.73154068280553,398.08850284337973" stroke-width="0" style="-webkit-tap-highlight-color: rgba(0, 0, 0, 0);"></path><path fill="#f324c4" stroke="#000000" d="M284.19367838079086,342.77121980497384L276.3020667444112,344.9491662298643L290.38467798469264,406.6491174679407L303.75033815679626,402.9604296397231" stroke-width="0" style="-webkit-tap-highlight-color: rgba(0, 0, 0, 0);"></path><path fill="#f324c4" stroke="#000000" d="M276.3020667444112,344.9491662298643L268.2469948040275,346.41094626953463L276.7421726033195,409.124867182553L290.38467798469264,406.6491174679407" stroke-width="0" style="-webkit-tap-highlight-color: rgba(0, 0, 0, 0);"></path><path fill="#f324c4" stroke="#000000" d="M268.2469948040275,346.41094626953463L260.09331726259813,347.14479053061825L262.9326634443444,410.3677455025753L276.7421726033195,409.124867182553" stroke-width="0" style="-webkit-tap-highlight-color: rgba(0, 0, 0, 0);"></path><path fill="#f324c4" stroke="#000000" d="M260.09331726259813,347.14479053061825L251.9066827374019,347.14479053061825L249.0673365556556,410.3677455025753L262.9326634443444,410.3677455025753" stroke-width="0" style="-webkit-tap-highlight-color: rgba(0, 0, 0, 0);"></path><path fill="#f33624" stroke="#000000" d="M251.9066827374019,347.14479053061825L243.7530051959725,346.41094626953463L235.25782739668054,409.12486718255303L249.0673365556556,410.3677455025753" stroke-width="0" style="-webkit-tap-highlight-color: rgba(0, 0, 0, 0);"></path><path fill="#f33624" stroke="#000000" d="M243.7530051959725,346.41094626953463L235.6979332555888,344.9491662298643L221.6153220153074,406.6491174679407L235.25782739668054,409.12486718255303" stroke-width="0" style="-webkit-tap-highlight-color: rgba(0, 0, 0, 0);"></path><path fill="#f33624" stroke="#000000" d="M235.6979332555888,344.9491662298643L227.80632161920917,342.77121980497384L208.2496618432038,402.9604296397231L221.6153220153074,406.6491174679407" stroke-width="0" style="-webkit-tap-highlight-color: rgba(0, 0, 0, 0);"></path><path fill="#f33624" stroke="#000000" d="M227.80632161920917,342.77121980497384L220.14170890353722,339.8946425388648L195.26845931719453,398.08850284337973L208.2496618432038,402.9604296397231" stroke-width="0" style="-webkit-tap-highlight-color: rgba(0, 0, 0, 0);"></path><path fill="#f33624" stroke="#000000" d="M220.14170890353722,339.8946425388648L212.7658060634403,336.34259494028373L182.77623144719558,392.07256296882827L195.26845931719453,398.08850284337973" stroke-width="0" style="-webkit-tap-highlight-color: rgba(0, 0, 0, 0);"></path><path fill="#f33624" stroke="#000000" d="M212.7658060634403,336.34259494028373L205.7379995316262,332.14367600792434L170.87355830670512,384.96104682662303L182.77623144719558,392.07256296882827" stroke-width="0" style="-webkit-tap-highlight-color: rgba(0, 0, 0, 0);"></path><path fill="#f33624" stroke="#000000" d="M205.7379995316262,332.14367600792434L199.11487307400574,327.3316929681056L159.65627322119195,376.8112121632375L170.87355830670512,384.96104682662303" stroke-width="0" style="-webkit-tap-highlight-color: rgba(0, 0, 0, 0);"></path><path fill="#f33624" stroke="#000000" d="M199.11487307400574,327.3316929681056L192.94975221048043,321.94538907886385L149.21469117450775,367.68867665535595L159.65627322119195,376.8112121632375" stroke-width="0" style="-webkit-tap-highlight-color: rgba(0, 0, 0, 0);"></path><path fill="#f33624" stroke="#000000" d="M192.94975221048043,321.94538907886385L187.29227486921096,316.02813169202L139.63288164574163,357.66688959492376L149.21469117450775,367.68867665535595" stroke-width="0" style="-webkit-tap-highlight-color: rgba(0, 0, 0, 0);"></path><path fill="#f33624" stroke="#000000" d="M187.29227486921096,316.02813169202L182.18799173120647,309.62756308476185L130.98799173120648,346.82654051863636L139.63288164574163,357.66688959492376" stroke-width="0" style="-webkit-tap-highlight-color: rgba(0, 0, 0, 0);"></path><path fill="#f3e724" stroke="#000000" d="M182.18799173120647,309.62756308476185L177.67799948302428,302.7952168720417L123.3496250013811,335.25490954323385L130.98799173120648,346.82654051863636" stroke-width="0" style="-webkit-tap-highlight-color: rgba(0, 0, 0, 0);"></path><path fill="#f3e724" stroke="#000000" d="M177.67799948302428,302.7952168720417L173.79860993041427,295.58610308820977L116.77928109388722,323.04516463732136L123.3496250013811,335.25490954323385" stroke-width="0" style="-webkit-tap-highlight-color: rgba(0, 0, 0, 0);"></path><path fill="#f3e724" stroke="#000000" d="M173.79860993041427,295.58610308820977L170.5810576370099,288.0582652785632L111.32986055456828,310.2956114876676L116.77928109388722,323.04516463732136" stroke-width="0" style="-webkit-tap-highlight-color: rgba(0, 0, 0, 0);"></path><path fill="#f3e724" stroke="#000000" d="M170.5810576370099,288.0582652785632L168.05124844198758,280.27231316684845L107.04523891339952,297.1089019996177L111.32986055456828,310.2956114876676" stroke-width="0" style="-webkit-tap-highlight-color: rgba(0, 0, 0, 0);"></path><path fill="#f3e724" stroke="#000000" d="M168.05124844198758,280.27231316684845L166.22955088148188,272.2909346614032L103.95991342451887,283.59120780430976L107.04523891339952,297.1089019996177" stroke-width="0" style="-webkit-tap-highlight-color: rgba(0, 0, 0, 0);"></path><path fill="#f3e724" stroke="#000000" d="M166.22955088148188,272.2909346614032L165.13063219310922,264.17839112897883L102.09872531462082,269.85136542712905L103.95991342451887,283.59120780430976" stroke-width="0" style="-webkit-tap-highlight-color: rgba(0, 0, 0, 0);"></path><path fill="#f3e724" stroke="#000000" d="M165.13063219310922,264.17839112897883L164.76334022399462,256L101.47665977600536,256L102.09872531462082,269.85136542712905" stroke-width="0" style="-webkit-tap-highlight-color: rgba(0, 0, 0, 0);"></path><path fill="#f3e724" stroke="#000000" d="M164.76334022399462,256L165.1306321931092,247.8216088710212L102.09872531462082,242.14863457287103L101.47665977600536,256" stroke-width="0" style="-webkit-tap-highlight-color: rgba(0, 0, 0, 0);"></path><path fill="#f3e724" stroke="#000000" d="M165.1306321931092,247.8216088710212L166.22955088148188,239.70906533859682L103.95991342451887,228.4087921956903L102.09872531462082,242.14863457287103" stroke-width="0" style="-webkit-tap-highlight-color: rgba(0, 0, 0, 0);"></path><path fill="#f3e724" stroke="#000000" d="M166.22955088148188,239.70906533859682L168.05124844198755,231.7276868331516L107.04523891339952,214.89109800038239L103.95991342451887,228.4087921956903" stroke-width="0" style="-webkit-tap-highlight-color: rgba(0, 0, 0, 0);"></path><path fill="#4ef324" stroke="#000000" d="M168.05124844198755,231.7276868331516L170.58105763700988,223.9417347214368L111.32986055456826,201.70438851233246L107.04523891339952,214.89109800038239" stroke-width="0" style="-webkit-tap-highlight-color: rgba(0, 0, 0, 0);"></path><path fill="#4ef324" stroke="#000000" d="M170.58105763700988,223.9417347214368L173.79860993041424,216.4138969117903L116.77928109388719,188.95483536267866L111.32986055456826,201.70438851233246" stroke-width="0" style="-webkit-tap-highlight-color: rgba(0, 0, 0, 0);"></path><path fill="#4ef324" stroke="#000000" d="M173.79860993041424,216.4138969117903L177.67799948302428,209.20478312795836L123.34962500138107,176.74509045676618L116.77928109388719,188.95483536267866" stroke-width="0" style="-webkit-tap-highlight-color: rgba(0, 0, 0, 0);"></path><path fill="#4ef324" stroke="#000000" d="M177.67799948302428,209.20478312795836L182.18799173120647,202.37243691523815L130.98799173120642,165.1734594813637L123.34962500138107,176.74509045676618" stroke-width="0" style="-webkit-tap-highlight-color: rgba(0, 0, 0, 0);"></path><path fill="#4ef324" stroke="#000000" d="M182.18799173120647,202.37243691523815L187.29227486921093,195.97186830798L139.63288164574158,154.33311040507624L130.98799173120642,165.1734594813637" stroke-width="0" style="-webkit-tap-highlight-color: rgba(0, 0, 0, 0);"></path><path fill="#4ef324" stroke="#000000" d="M187.29227486921093,195.97186830798L192.9497522104804,190.05461092113615L149.21469117450772,144.31132334464414L139.63288164574158,154.33311040507624" stroke-width="0" style="-webkit-tap-highlight-color: rgba(0, 0, 0, 0);"></path><path fill="#4ef324" stroke="#000000" d="M192.9497522104804,190.05461092113615L199.11487307400571,184.66830703189447L159.6562732211919,135.18878783676254L149.21469117450772,144.31132334464414" stroke-width="0" style="-webkit-tap-highlight-color: rgba(0, 0, 0, 0);"></path><path fill="#4ef324" stroke="#000000" d="M199.11487307400571,184.66830703189447L205.73799953162614,179.85632399207572L170.87355830670506,127.03895317337697L159.6562732211919,135.18878783676254" stroke-width="0" style="-webkit-tap-highlight-color: rgba(0, 0, 0, 0);"></path><path fill="#4ef324" stroke="#000000" d="M205.73799953162614,179.85632399207572L212.76580606344027,175.6574050597163L182.77623144719553,119.92743703117179L170.87355830670506,127.03895317337697" stroke-width="0" style="-webkit-tap-highlight-color: rgba(0, 0, 0, 0);"></path><path fill="#4ef324" stroke="#000000" d="M212.76580606344027,175.6574050597163L220.14170890353722,172.10535746113524L195.26845931719447,113.91149715662024L182.77623144719553,119.92743703117179" stroke-width="0" style="-webkit-tap-highlight-color: rgba(0, 0, 0, 0);"></path><path fill="#24f3ac" stroke="#000000" d="M220.14170890353722,172.10535746113524L227.80632161920914,169.22878019502616L208.24966184320374,109.03957036027688L195.26845931719447,113.91149715662024" stroke-width="0" style="-webkit-tap-highlight-color: rgba(0, 0, 0, 0);"></path><path fill="#24f3ac" stroke="#000000" d="M227.80632161920914,169.22878019502616L235.69793325558877,167.0508337701357L221.61532201530736,105.35088253205933L208.24966184320374,109.03957036027688" stroke-width="0" style="-webkit-tap-highlight-color: rgba(0, 0, 0, 0);"></path><path fill="#24f3ac" stroke="#000000" d="M235.69793325558877,167.0508337701357L243.75300519597246,165.58905373046537L235.25782739668048,102.875132817447L221.61532201530736,105.35088253205933" stroke-width="0" style="-webkit-tap-highlight-color: rgba(0, 0, 0, 0);"></path><path fill="#24f3ac" stroke="#000000" d="M243.75300519597246,165.58905373046537L251.90668273740184,164.85520946938178L249.06733655565554,101.63225449742473L235.25782739668048,102.875132817447" stroke-width="0" style="-webkit-tap-highlight-color: rgba(0, 0, 0, 0);"></path><path fill="#24f3ac" stroke="#000000" d="M251.90668273740184,164.85520946938178L260.09331726259813,164.85520946938175L262.93266344434437,101.63225449742473L249.06733655565554,101.63225449742473" stroke-width="0" style="-webkit-tap-highlight-color: rgba(0, 0, 0, 0);"></path><path fill="#0bda93" stroke="#000000" d="M262.9326634443444,101.63225449742473L276.7421726033195,102.87513281744697L283.6149158131835,52.13850501492868L265.2297427582908,50.48380949050937" stroke-width="0" style="-webkit-tap-highlight-color: rgba(0, 0, 0, 0);"></path><path fill="#0bda93" stroke="#000000" d="M276.7421726033195,102.87513281744697L290.3846779846926,105.3508825320593L301.7777498032559,55.43457342834992L283.6149158131835,52.13850501492868" stroke-width="0" style="-webkit-tap-highlight-color: rgba(0, 0, 0, 0);"></path><path fill="#0bda93" stroke="#000000" d="M290.3846779846926,105.3508825320593L303.75033815679626,109.03957036027688L319.5720082687935,60.34547672596503L301.7777498032559,55.43457342834992" stroke-width="0" style="-webkit-tap-highlight-color: rgba(0, 0, 0, 0);"></path><path fill="#0bda93" stroke="#000000" d="M303.75033815679626,109.03957036027688L316.73154068280553,113.91149715662024L336.8544223034864,66.83167520198595L319.5720082687935,60.34547672596503" stroke-width="0" style="-webkit-tap-highlight-color: rgba(0, 0, 0, 0);"></path><path fill="#0bda93" stroke="#000000" d="M316.73154068280553,113.91149715662024L329.2237685528045,119.92743703117176L353.485844071422,74.84094580010677L336.8544223034864,66.83167520198595" stroke-width="0" style="-webkit-tap-highlight-color: rgba(0, 0, 0, 0);"></path><path fill="#0b6fda" stroke="#000000" d="M329.2237685528045,119.92743703117176L341.1264416932949,127.03895317337697L369.33236714364256,84.30880258284625L353.485844071422,74.84094580010677" stroke-width="0" style="-webkit-tap-highlight-color: rgba(0, 0, 0, 0);"></path><path fill="#0b6fda" stroke="#000000" d="M341.1264416932949,127.03895317337697L352.3437267788081,135.18878783676251L384.26640463397524,95.1590159343994L369.33236714364256,84.30880258284625" stroke-width="0" style="-webkit-tap-highlight-color: rgba(0, 0, 0, 0);"></path><path fill="#0b6fda" stroke="#000000" d="M352.3437267788081,135.18878783676251L362.7853088254923,144.3113233446441L398.16771645361973,107.30422631668165L384.26640463397524,95.1590159343994" stroke-width="0" style="-webkit-tap-highlight-color: rgba(0, 0, 0, 0);"></path><path fill="#0b6fda" stroke="#000000" d="M362.7853088254923,144.3113233446441L372.36711835425837,154.33311040507624L410.92437741364324,120.64664763696294L398.16771645361973,107.30422631668165" stroke-width="0" style="-webkit-tap-highlight-color: rgba(0, 0, 0, 0);"></path><path fill="#0b6fda" stroke="#000000" d="M372.36711835425837,154.33311040507624L381.0120082687936,165.17345948136364L422.43367838079087,135.078854563989L410.92437741364324,120.64664763696294" stroke-width="0" style="-webkit-tap-highlight-color: rgba(0, 0, 0, 0);"></path><path fill="#0b6fda" stroke="#000000" d="M381.0120082687936,165.17345948136364L388.6503749986189,176.74509045676615L432.60295323103446,150.48464745358376L422.43367838079087,135.078854563989" stroke-width="0" style="-webkit-tap-highlight-color: rgba(0, 0, 0, 0);"></path><path fill="#0b6fda" stroke="#000000" d="M388.6503749986189,176.74509045676615L395.2207189061128,188.95483536267864L441.35032494271667,166.73998791985963L432.60295323103446,150.48464745358376" stroke-width="0" style="-webkit-tap-highlight-color: rgba(0, 0, 0, 0);"></path><path fill="#0b6fda" stroke="#000000" d="M395.2207189061128,188.95483536267864L400.6701394454317,201.7043885123324L448.6053648221863,183.71399751936764L441.35032494271667,166.73998791985963" stroke-width="0" style="-webkit-tap-highlight-color: rgba(0, 0, 0, 0);"></path><path fill="#0b6fda" stroke="#000000" d="M400.6701394454317,201.7043885123324L404.95476108660046,214.89109800038233L454.3096595542282,201.27001150736857L448.6053648221863,183.71399751936764" stroke-width="0" style="-webkit-tap-highlight-color: rgba(0, 0, 0, 0);"></path><path fill="#0b6fda" stroke="#000000" d="M404.95476108660046,214.89109800038233L408.04008657548115,228.40879219569024L458.41728151173095,219.26667918200005L454.3096595542282,201.27001150736857" stroke-width="0" style="-webkit-tap-highlight-color: rgba(0, 0, 0, 0);"></path><path fill="#580bda" stroke="#000000" d="M408.04008657548115,228.40879219569024L409.9012746853792,242.14863457287098L460.89515853793546,237.55910195701517L458.41728151173095,219.26667918200005" stroke-width="0" style="-webkit-tap-highlight-color: rgba(0, 0, 0, 0);"></path><path fill="#580bda" stroke="#000000" d="M409.9012746853792,242.14863457287098L410.52334022399464,256L461.7233402239947,256L460.89515853793546,237.55910195701517" stroke-width="0" style="-webkit-tap-highlight-color: rgba(0, 0, 0, 0);"></path><path fill="#580bda" stroke="#000000" d="M410.52334022399464,256L409.9012746853792,269.851365427129L460.89515853793546,274.44089804298477L461.7233402239947,256" stroke-width="0" style="-webkit-tap-highlight-color: rgba(0, 0, 0, 0);"></path><path fill="#580bda" stroke="#000000" d="M409.9012746853792,269.851365427129L408.04008657548115,283.59120780430976L458.41728151173095,292.7333208179999L460.89515853793546,274.44089804298477" stroke-width="0" style="-webkit-tap-highlight-color: rgba(0, 0, 0, 0);"></path><path fill="#580bda" stroke="#000000" d="M408.04008657548115,283.59120780430976L404.95476108660046,297.1089019996177L454.30965955422823,310.72998849263143L458.41728151173095,292.7333208179999" stroke-width="0" style="-webkit-tap-highlight-color: rgba(0, 0, 0, 0);"></path><path fill="#580bda" stroke="#000000" d="M404.95476108660046,297.1089019996177L400.6701394454317,310.29561148766754L448.6053648221863,328.2860024806323L454.30965955422823,310.72998849263143" stroke-width="0" style="-webkit-tap-highlight-color: rgba(0, 0, 0, 0);"></path><path fill="#580bda" stroke="#000000" d="M400.6701394454317,310.29561148766754L395.2207189061128,323.04516463732136L441.35032494271667,345.2600120801403L448.6053648221863,328.2860024806323" stroke-width="0" style="-webkit-tap-highlight-color: rgba(0, 0, 0, 0);"></path><path fill="#580bda" stroke="#000000" d="M395.2207189061128,323.04516463732136L388.6503749986189,335.2549095432338L432.60295323103446,361.51535254641624L441.35032494271667,345.2600120801403" stroke-width="0" style="-webkit-tap-highlight-color: rgba(0, 0, 0, 0);"></path><path fill="#580bda" stroke="#000000" d="M388.6503749986189,335.2549095432338L381.0120082687936,346.8265405186363L422.43367838079087,376.921145436011L432.60295323103446,361.51535254641624" stroke-width="0" style="-webkit-tap-highlight-color: rgba(0, 0, 0, 0);"></path><path fill="#580bda" stroke="#000000" d="M381.0120082687936,346.8265405186363L372.3671183542584,357.66688959492376L410.92437741364324,391.35335236303706L422.43367838079087,376.921145436011" stroke-width="0" style="-webkit-tap-highlight-color: rgba(0, 0, 0, 0);"></path><path fill="#da0baa" stroke="#000000" d="M372.3671183542584,357.66688959492376L362.7853088254923,367.6886766553559L398.16771645361973,404.69577368331835L410.92437741364324,391.35335236303706" stroke-width="0" style="-webkit-tap-highlight-color: rgba(0, 0, 0, 0);"></path><path fill="#da0baa" stroke="#000000" d="M362.7853088254923,367.6886766553559L352.3437267788081,376.8112121632374L384.2664046339753,416.8409840656006L398.16771645361973,404.69577368331835" stroke-width="0" style="-webkit-tap-highlight-color: rgba(0, 0, 0, 0);"></path><path fill="#da0baa" stroke="#000000" d="M352.3437267788081,376.8112121632374L341.1264416932949,384.96104682662303L369.3323671436426,427.6911974171537L384.2664046339753,416.8409840656006" stroke-width="0" style="-webkit-tap-highlight-color: rgba(0, 0, 0, 0);"></path><path fill="#da0baa" stroke="#000000" d="M341.1264416932949,384.96104682662303L329.2237685528045,392.07256296882827L353.485844071422,437.15905419989326L369.3323671436426,427.6911974171537" stroke-width="0" style="-webkit-tap-highlight-color: rgba(0, 0, 0, 0);"></path><path fill="#da0baa" stroke="#000000" d="M329.2237685528045,392.07256296882827L316.73154068280553,398.08850284337973L336.85442230348644,445.16832479801405L353.485844071422,437.15905419989326" stroke-width="0" style="-webkit-tap-highlight-color: rgba(0, 0, 0, 0);"></path><path fill="#da0baa" stroke="#000000" d="M316.73154068280553,398.08850284337973L303.75033815679626,402.9604296397231L319.5720082687936,451.654523274035L336.85442230348644,445.16832479801405" stroke-width="0" style="-webkit-tap-highlight-color: rgba(0, 0, 0, 0);"></path><path fill="#da0baa" stroke="#000000" d="M303.75033815679626,402.9604296397231L290.38467798469264,406.6491174679407L301.7777498032559,456.56542657165005L319.5720082687936,451.654523274035" stroke-width="0" style="-webkit-tap-highlight-color: rgba(0, 0, 0, 0);"></path><path fill="#da0baa" stroke="#000000" d="M290.38467798469264,406.6491174679407L276.7421726033195,409.124867182553L283.6149158131835,459.8614949850713L301.7777498032559,456.56542657165005" stroke-width="0" style="-webkit-tap-highlight-color: rgba(0, 0, 0, 0);"></path><path fill="#da0baa" stroke="#000000" d="M276.7421726033195,409.124867182553L262.9326634443444,410.3677455025753L265.2297427582908,461.51619050949057L283.6149158131835,459.8614949850713" stroke-width="0" style="-webkit-tap-highlight-color: rgba(0, 0, 0, 0);"></path><path fill="#da0baa" stroke="#000000" d="M262.9326634443444,410.3677455025753L249.0673365556556,410.3677455025753L246.77025724170923,461.5161905094906L265.2297427582908,461.51619050949057" stroke-width="0" style="-webkit-tap-highlight-color: rgba(0, 0, 0, 0);"></path><path fill="#da1d0b" stroke="#000000" d="M249.0673365556556,410.3677455025753L235.25782739668054,409.12486718255303L228.38508418681658,459.8614949850713L246.77025724170923,461.5161905094906" stroke-width="0" style="-webkit-tap-highlight-color: rgba(0, 0, 0, 0);"></path><path fill="#da1d0b" stroke="#000000" d="M235.25782739668054,409.12486718255303L221.6153220153074,406.6491174679407L210.2222501967441,456.56542657165005L228.38508418681658,459.8614949850713" stroke-width="0" style="-webkit-tap-highlight-color: rgba(0, 0, 0, 0);"></path><path fill="#da1d0b" stroke="#000000" d="M221.6153220153074,406.6491174679407L208.2496618432038,402.9604296397231L192.42799173120648,451.654523274035L210.2222501967441,456.56542657165005" stroke-width="0" style="-webkit-tap-highlight-color: rgba(0, 0, 0, 0);"></path><path fill="#da1d0b" stroke="#000000" d="M208.2496618432038,402.9604296397231L195.26845931719453,398.08850284337973L175.1455776965136,445.16832479801405L192.42799173120648,451.654523274035" stroke-width="0" style="-webkit-tap-highlight-color: rgba(0, 0, 0, 0);"></path><path fill="#da1d0b" stroke="#000000" d="M195.26845931719453,398.08850284337973L182.77623144719558,392.07256296882827L158.51415592857802,437.15905419989326L175.1455776965136,445.16832479801405" stroke-width="0" style="-webkit-tap-highlight-color: rgba(0, 0, 0, 0);"></path><path fill="#da1d0b" stroke="#000000" d="M182.77623144719558,392.07256296882827L170.87355830670512,384.96104682662303L142.66763285635744,427.6911974171538L158.51415592857802,437.15905419989326" stroke-width="0" style="-webkit-tap-highlight-color: rgba(0, 0, 0, 0);"></path><path fill="#da1d0b" stroke="#000000" d="M170.87355830670512,384.96104682662303L159.65627322119195,376.8112121632375L127.73359536602479,416.84098406560065L142.66763285635744,427.6911974171538" stroke-width="0" style="-webkit-tap-highlight-color: rgba(0, 0, 0, 0);"></path><path fill="#da1d0b" stroke="#000000" d="M159.65627322119195,376.8112121632375L149.21469117450775,367.68867665535595L113.83228354638027,404.6957736833184L127.73359536602479,416.84098406560065" stroke-width="0" style="-webkit-tap-highlight-color: rgba(0, 0, 0, 0);"></path><path fill="#da1d0b" stroke="#000000" d="M149.21469117450775,367.68867665535595L139.63288164574163,357.66688959492376L101.07562258635673,391.35335236303706L113.83228354638027,404.6957736833184" stroke-width="0" style="-webkit-tap-highlight-color: rgba(0, 0, 0, 0);"></path><path fill="#da1d0b" stroke="#000000" d="M139.63288164574163,357.66688959492376L130.98799173120648,346.82654051863636L89.56632161920913,376.921145436011L101.07562258635673,391.35335236303706" stroke-width="0" style="-webkit-tap-highlight-color: rgba(0, 0, 0, 0);"></path><path fill="#dace0b" stroke="#000000" d="M130.98799173120648,346.82654051863636L123.3496250013811,335.25490954323385L79.39704676896557,361.51535254641624L89.56632161920913,376.921145436011" stroke-width="0" style="-webkit-tap-highlight-color: rgba(0, 0, 0, 0);"></path><path fill="#dace0b" stroke="#000000" d="M123.3496250013811,335.25490954323385L116.77928109388722,323.04516463732136L70.64967505728336,345.26001208014037L79.39704676896557,361.51535254641624" stroke-width="0" style="-webkit-tap-highlight-color: rgba(0, 0, 0, 0);"></path><path fill="#dace0b" stroke="#000000" d="M116.77928109388722,323.04516463732136L111.32986055456828,310.2956114876676L63.39463517781371,328.28600248063236L70.64967505728336,345.26001208014037" stroke-width="0" style="-webkit-tap-highlight-color: rgba(0, 0, 0, 0);"></path><path fill="#dace0b" stroke="#000000" d="M111.32986055456828,310.2956114876676L107.04523891339952,297.1089019996177L57.690340445771824,310.7299884926315L63.39463517781371,328.28600248063236" stroke-width="0" style="-webkit-tap-highlight-color: rgba(0, 0, 0, 0);"></path><path fill="#dace0b" stroke="#000000" d="M107.04523891339952,297.1089019996177L103.95991342451887,283.59120780430976L53.58271848826902,292.733320818L57.690340445771824,310.7299884926315" stroke-width="0" style="-webkit-tap-highlight-color: rgba(0, 0, 0, 0);"></path><path fill="#dace0b" stroke="#000000" d="M103.95991342451887,283.59120780430976L102.09872531462082,269.85136542712905L51.10484146206457,274.4408980429848L53.58271848826902,292.733320818" stroke-width="0" style="-webkit-tap-highlight-color: rgba(0, 0, 0, 0);"></path><path fill="#dace0b" stroke="#000000" d="M102.09872531462082,269.85136542712905L101.47665977600536,256L50.276659776005346,256.00000000000006L51.10484146206457,274.4408980429848" stroke-width="0" style="-webkit-tap-highlight-color: rgba(0, 0, 0, 0);"></path><path fill="#dace0b" stroke="#000000" d="M101.47665977600536,256L102.09872531462082,242.14863457287103L51.10484146206457,237.55910195701523L50.276659776005346,256.00000000000006" stroke-width="0" style="-webkit-tap-highlight-color: rgba(0, 0, 0, 0);"></path><path fill="#dace0b" stroke="#000000" d="M102.09872531462082,242.14863457287103L103.95991342451887,228.4087921956903L53.58271848826902,219.26667918200008L51.10484146206457,237.55910195701523" stroke-width="0" style="-webkit-tap-highlight-color: rgba(0, 0, 0, 0);"></path><path fill="#dace0b" stroke="#000000" d="M103.95991342451887,228.4087921956903L107.04523891339952,214.89109800038239L57.690340445771795,201.27001150736862L53.58271848826902,219.26667918200008" stroke-width="0" style="-webkit-tap-highlight-color: rgba(0, 0, 0, 0);"></path><path fill="#34da0b" stroke="#000000" d="M107.04523891339952,214.89109800038239L111.32986055456826,201.70438851233246L63.39463517781368,183.7139975193677L57.690340445771795,201.27001150736862" stroke-width="0" style="-webkit-tap-highlight-color: rgba(0, 0, 0, 0);"></path><path fill="#34da0b" stroke="#000000" d="M111.32986055456826,201.70438851233246L116.77928109388719,188.95483536267866L70.6496750572833,166.7399879198597L63.39463517781368,183.7139975193677" stroke-width="0" style="-webkit-tap-highlight-color: rgba(0, 0, 0, 0);"></path><path fill="#34da0b" stroke="#000000" d="M116.77928109388719,188.95483536267866L123.34962500138107,176.74509045676618L79.39704676896551,150.48464745358376L70.6496750572833,166.7399879198597" stroke-width="0" style="-webkit-tap-highlight-color: rgba(0, 0, 0, 0);"></path><path fill="#34da0b" stroke="#000000" d="M123.34962500138107,176.74509045676618L130.98799173120642,165.1734594813637L89.5663216192091,135.07885456398907L79.39704676896551,150.48464745358376" stroke-width="0" style="-webkit-tap-highlight-color: rgba(0, 0, 0, 0);"></path><path fill="#34da0b" stroke="#000000" d="M130.98799173120642,165.1734594813637L139.63288164574158,154.33311040507624L101.0756225863567,120.64664763696297L89.5663216192091,135.07885456398907" stroke-width="0" style="-webkit-tap-highlight-color: rgba(0, 0, 0, 0);"></path><path fill="#34da0b" stroke="#000000" d="M139.63288164574158,154.33311040507624L149.21469117450772,144.31132334464414L113.83228354638024,107.30422631668168L101.0756225863567,120.64664763696297" stroke-width="0" style="-webkit-tap-highlight-color: rgba(0, 0, 0, 0);"></path><path fill="#34da0b" stroke="#000000" d="M149.21469117450772,144.31132334464414L159.6562732211919,135.18878783676254L127.7335953660247,95.1590159343994L113.83228354638024,107.30422631668168" stroke-width="0" style="-webkit-tap-highlight-color: rgba(0, 0, 0, 0);"></path><path fill="#34da0b" stroke="#000000" d="M159.6562732211919,135.18878783676254L170.87355830670506,127.03895317337697L142.6676328563574,84.30880258284625L127.7335953660247,95.1590159343994" stroke-width="0" style="-webkit-tap-highlight-color: rgba(0, 0, 0, 0);"></path><path fill="#34da0b" stroke="#000000" d="M170.87355830670506,127.03895317337697L182.77623144719553,119.92743703117179L158.51415592857796,74.8409458001068L142.6676328563574,84.30880258284625" stroke-width="0" style="-webkit-tap-highlight-color: rgba(0, 0, 0, 0);"></path><path fill="#34da0b" stroke="#000000" d="M182.77623144719553,119.92743703117179L195.26845931719447,113.91149715662024L175.14557769651356,66.83167520198597L158.51415592857796,74.8409458001068" stroke-width="0" style="-webkit-tap-highlight-color: rgba(0, 0, 0, 0);"></path><path fill="#0bda93" stroke="#000000" d="M195.26845931719447,113.91149715662024L208.24966184320374,109.03957036027688L192.42799173120642,60.34547672596503L175.14557769651356,66.83167520198597" stroke-width="0" style="-webkit-tap-highlight-color: rgba(0, 0, 0, 0);"></path><path fill="#0bda93" stroke="#000000" d="M208.24966184320374,109.03957036027688L221.61532201530736,105.35088253205933L210.22225019674403,55.43457342834995L192.42799173120642,60.34547672596503" stroke-width="0" style="-webkit-tap-highlight-color: rgba(0, 0, 0, 0);"></path><path fill="#0bda93" stroke="#000000" d="M221.61532201530736,105.35088253205933L235.25782739668048,102.875132817447L228.3850841868165,52.13850501492871L210.22225019674403,55.43457342834995" stroke-width="0" style="-webkit-tap-highlight-color: rgba(0, 0, 0, 0);"></path><path fill="#0bda93" stroke="#000000" d="M235.25782739668048,102.875132817447L249.06733655565554,101.63225449742473L246.77025724170917,50.4838094905094L228.3850841868165,52.13850501492871" stroke-width="0" style="-webkit-tap-highlight-color: rgba(0, 0, 0, 0);"></path><path fill="#0bda93" stroke="#000000" d="M249.06733655565554,101.63225449742473L262.93266344434437,101.63225449742473L265.22974275829074,50.48380949050937L246.77025724170917,50.4838094905094" stroke-width="0" style="-webkit-tap-highlight-color: rgba(0, 0, 0, 0);"></path><path fill="#08a972" stroke="#000000" d="M265.2297427582908,50.48380949050937L283.6149158131835,52.13850501492868L286.24007012340144,32.758837668919625L266.107148981364,30.946841969572603" stroke-width="0" style="-webkit-tap-highlight-color: rgba(0, 0, 0, 0);"></path><path fill="#08a972" stroke="#000000" d="M283.6149158131835,52.13850501492868L301.7777498032559,55.43457342834992L306.1295160016785,36.36823994367876L286.24007012340144,32.758837668919625" stroke-width="0" style="-webkit-tap-highlight-color: rgba(0, 0, 0, 0);"></path><path fill="#08a972" stroke="#000000" d="M301.7777498032559,55.43457342834992L319.5720082687935,60.34547672596503L325.61534849278814,41.7459880090278L306.1295160016785,36.36823994367876" stroke-width="0" style="-webkit-tap-highlight-color: rgba(0, 0, 0, 0);"></path><path fill="#08a972" stroke="#000000" d="M319.5720082687935,60.34547672596503L336.8544223034864,66.83167520198595L344.54067913099595,48.848783399609175L325.61534849278814,41.7459880090278" stroke-width="0" style="-webkit-tap-highlight-color: rgba(0, 0, 0, 0);"></path><path fill="#08a972" stroke="#000000" d="M336.8544223034864,66.83167520198595L353.485844071422,74.84094580010677L362.75313228191715,57.619438583314036L344.54067913099595,48.848783399609175" stroke-width="0" style="-webkit-tap-highlight-color: rgba(0, 0, 0, 0);"></path><path fill="#0856a9" stroke="#000000" d="M353.485844071422,74.84094580010677L369.33236714364256,84.30880258284625L380.1060719815297,67.98733740166492L362.75313228191715,57.619438583314036" stroke-width="0" style="-webkit-tap-highlight-color: rgba(0, 0, 0, 0);"></path><path fill="#0856a9" stroke="#000000" d="M369.33236714364256,84.30880258284625L384.26640463397524,95.1590159343994L396.4597825627355,79.86900362960222L380.1060719815297,67.98733740166492" stroke-width="0" style="-webkit-tap-highlight-color: rgba(0, 0, 0, 0);"></path><path fill="#0856a9" stroke="#000000" d="M384.26640463397524,95.1590159343994L398.16771645361973,107.30422631668165L411.68259356376086,93.16877307696521L396.4597825627355,79.86900362960222" stroke-width="0" style="-webkit-tap-highlight-color: rgba(0, 0, 0, 0);"></path><path fill="#0856a9" stroke="#000000" d="M398.16771645361973,107.30422631668165L410.92437741364324,120.64664763696294L425.6519398612935,107.77956382030152L411.68259356376086,93.16877307696521" stroke-width="0" style="-webkit-tap-highlight-color: rgba(0, 0, 0, 0);"></path><path fill="#0856a9" stroke="#000000" d="M410.92437741364324,120.64664763696294L422.43367838079087,135.078854563989L438.2553484927882,123.58373836355165L425.6519398612935,107.77956382030152" stroke-width="0" style="-webkit-tap-highlight-color: rgba(0, 0, 0, 0);"></path><path fill="#0856a9" stroke="#000000" d="M422.43367838079087,135.078854563989L432.60295323103446,150.48464745358376L449.3913442226284,140.45405078599745L438.2553484927882,123.58373836355165" stroke-width="0" style="-webkit-tap-highlight-color: rgba(0, 0, 0, 0);"></path><path fill="#0856a9" stroke="#000000" d="M432.60295323103446,150.48464745358376L441.35032494271667,166.73998791985963L458.970266561057,158.25467125159648L449.3913442226284,140.45405078599745" stroke-width="0" style="-webkit-tap-highlight-color: rgba(0, 0, 0, 0);"></path><path fill="#0856a9" stroke="#000000" d="M441.35032494271667,166.73998791985963L448.6053648221863,183.71399751936764L466.91499165772007,176.8422796309551L458.970266561057,158.25467125159648" stroke-width="0" style="-webkit-tap-highlight-color: rgba(0, 0, 0, 0);"></path><path fill="#0856a9" stroke="#000000" d="M448.6053648221863,183.71399751936764L454.3096595542282,201.27001150736857L473.1615532575619,196.0672194307394L466.91499165772007,176.8422796309551" stroke-width="0" style="-webkit-tap-highlight-color: rgba(0, 0, 0, 0);"></path><path fill="#0856a9" stroke="#000000" d="M454.3096595542282,201.27001150736857L458.41728151173095,219.26667918200005L477.6596577194993,215.77470273976311L473.1615532575619,196.0672194307394" stroke-width="0" style="-webkit-tap-highlight-color: rgba(0, 0, 0, 0);"></path><path fill="#4408a9" stroke="#000000" d="M458.41728151173095,219.26667918200005L460.89515853793546,237.55910195701517L480.3730889512475,235.80605649023448L477.6596577194993,215.77470273976311" stroke-width="0" style="-webkit-tap-highlight-color: rgba(0, 0, 0, 0);"></path><path fill="#4408a9" stroke="#000000" d="M460.89515853793546,237.55910195701517L461.7233402239947,256L481.28000000000003,256L480.3730889512475,235.80605649023448" stroke-width="0" style="-webkit-tap-highlight-color: rgba(0, 0, 0, 0);"></path><path fill="#4408a9" stroke="#000000" d="M461.7233402239947,256L460.89515853793546,274.44089804298477L480.3730889512475,276.1939435097655L481.28000000000003,256" stroke-width="0" style="-webkit-tap-highlight-color: rgba(0, 0, 0, 0);"></path><path fill="#4408a9" stroke="#000000" d="M460.89515853793546,274.44089804298477L458.41728151173095,292.7333208179999L477.6596577194993,296.22529726023686L480.3730889512475,276.1939435097655" stroke-width="0" style="-webkit-tap-highlight-color: rgba(0, 0, 0, 0);"></path><path fill="#4408a9" stroke="#000000" d="M458.41728151173095,292.7333208179999L454.30965955422823,310.72998849263143L473.1615532575619,315.93278056926056L477.6596577194993,296.22529726023686" stroke-width="0" style="-webkit-tap-highlight-color: rgba(0, 0, 0, 0);"></path><path fill="#4408a9" stroke="#000000" d="M454.30965955422823,310.72998849263143L448.6053648221863,328.2860024806323L466.91499165772007,335.1577203690449L473.1615532575619,315.93278056926056" stroke-width="0" style="-webkit-tap-highlight-color: rgba(0, 0, 0, 0);"></path><path fill="#4408a9" stroke="#000000" d="M448.6053648221863,328.2860024806323L441.35032494271667,345.2600120801403L458.970266561057,353.7453287484035L466.91499165772007,335.1577203690449" stroke-width="0" style="-webkit-tap-highlight-color: rgba(0, 0, 0, 0);"></path><path fill="#4408a9" stroke="#000000" d="M441.35032494271667,345.2600120801403L432.60295323103446,361.51535254641624L449.3913442226284,371.5459492140025L458.970266561057,353.7453287484035" stroke-width="0" style="-webkit-tap-highlight-color: rgba(0, 0, 0, 0);"></path><path fill="#4408a9" stroke="#000000" d="M432.60295323103446,361.51535254641624L422.43367838079087,376.921145436011L438.2553484927882,388.4162616364483L449.3913442226284,371.5459492140025" stroke-width="0" style="-webkit-tap-highlight-color: rgba(0, 0, 0, 0);"></path><path fill="#4408a9" stroke="#000000" d="M422.43367838079087,376.921145436011L410.92437741364324,391.35335236303706L425.6519398612935,404.2204361796985L438.2553484927882,388.4162616364483" stroke-width="0" style="-webkit-tap-highlight-color: rgba(0, 0, 0, 0);"></path><path fill="#a90884" stroke="#000000" d="M410.92437741364324,391.35335236303706L398.16771645361973,404.69577368331835L411.6825935637609,418.83122692303476L425.6519398612935,404.2204361796985" stroke-width="0" style="-webkit-tap-highlight-color: rgba(0, 0, 0, 0);"></path><path fill="#a90884" stroke="#000000" d="M398.16771645361973,404.69577368331835L384.2664046339753,416.8409840656006L396.45978256273554,432.1309963703977L411.6825935637609,418.83122692303476" stroke-width="0" style="-webkit-tap-highlight-color: rgba(0, 0, 0, 0);"></path><path fill="#a90884" stroke="#000000" d="M384.2664046339753,416.8409840656006L369.3323671436426,427.6911974171537L380.1060719815297,444.01266259833506L396.45978256273554,432.1309963703977" stroke-width="0" style="-webkit-tap-highlight-color: rgba(0, 0, 0, 0);"></path><path fill="#a90884" stroke="#000000" d="M369.3323671436426,427.6911974171537L353.485844071422,437.15905419989326L362.75313228191715,454.38056141668596L380.1060719815297,444.01266259833506" stroke-width="0" style="-webkit-tap-highlight-color: rgba(0, 0, 0, 0);"></path><path fill="#a90884" stroke="#000000" d="M353.485844071422,437.15905419989326L336.85442230348644,445.16832479801405L344.54067913099595,463.15121660039085L362.75313228191715,454.38056141668596" stroke-width="0" style="-webkit-tap-highlight-color: rgba(0, 0, 0, 0);"></path><path fill="#a90884" stroke="#000000" d="M336.85442230348644,445.16832479801405L319.5720082687936,451.654523274035L325.6153484927882,470.25401199097223L344.54067913099595,463.15121660039085" stroke-width="0" style="-webkit-tap-highlight-color: rgba(0, 0, 0, 0);"></path><path fill="#a90884" stroke="#000000" d="M319.5720082687936,451.654523274035L301.7777498032559,456.56542657165005L306.12951600167855,475.63176005632124L325.6153484927882,470.25401199097223" stroke-width="0" style="-webkit-tap-highlight-color: rgba(0, 0, 0, 0);"></path><path fill="#a90884" stroke="#000000" d="M301.7777498032559,456.56542657165005L283.6149158131835,459.8614949850713L286.24007012340144,479.2411623310803L306.12951600167855,475.63176005632124" stroke-width="0" style="-webkit-tap-highlight-color: rgba(0, 0, 0, 0);"></path><path fill="#a90884" stroke="#000000" d="M283.6149158131835,459.8614949850713L265.2297427582908,461.51619050949057L266.10714898136405,481.05315803042737L286.24007012340144,479.2411623310803" stroke-width="0" style="-webkit-tap-highlight-color: rgba(0, 0, 0, 0);"></path><path fill="#a90884" stroke="#000000" d="M265.2297427582908,461.51619050949057L246.77025724170923,461.5161905094906L245.89285101863604,481.0531580304274L266.10714898136405,481.05315803042737" stroke-width="0" style="-webkit-tap-highlight-color: rgba(0, 0, 0, 0);"></path><path fill="#a91608" stroke="#000000" d="M246.77025724170923,461.5161905094906L228.38508418681658,459.8614949850713L225.7599298765986,479.2411623310804L245.89285101863604,481.0531580304274" stroke-width="0" style="-webkit-tap-highlight-color: rgba(0, 0, 0, 0);"></path><path fill="#a91608" stroke="#000000" d="M228.38508418681658,459.8614949850713L210.2222501967441,456.56542657165005L205.8704839983215,475.63176005632124L225.7599298765986,479.2411623310804" stroke-width="0" style="-webkit-tap-highlight-color: rgba(0, 0, 0, 0);"></path><path fill="#a91608" stroke="#000000" d="M210.2222501967441,456.56542657165005L192.42799173120648,451.654523274035L186.38465150721186,470.25401199097223L205.8704839983215,475.63176005632124" stroke-width="0" style="-webkit-tap-highlight-color: rgba(0, 0, 0, 0);"></path><path fill="#a91608" stroke="#000000" d="M192.42799173120648,451.654523274035L175.1455776965136,445.16832479801405L167.4593208690041,463.15121660039085L186.38465150721186,470.25401199097223" stroke-width="0" style="-webkit-tap-highlight-color: rgba(0, 0, 0, 0);"></path><path fill="#a91608" stroke="#000000" d="M175.1455776965136,445.16832479801405L158.51415592857802,437.15905419989326L149.24686771808288,454.38056141668596L167.4593208690041,463.15121660039085" stroke-width="0" style="-webkit-tap-highlight-color: rgba(0, 0, 0, 0);"></path><path fill="#a91608" stroke="#000000" d="M158.51415592857802,437.15905419989326L142.66763285635744,427.6911974171538L131.89392801847035,444.0126625983351L149.24686771808288,454.38056141668596" stroke-width="0" style="-webkit-tap-highlight-color: rgba(0, 0, 0, 0);"></path><path fill="#a91608" stroke="#000000" d="M142.66763285635744,427.6911974171538L127.73359536602479,416.84098406560065L115.54021743726452,432.13099637039784L131.89392801847035,444.0126625983351" stroke-width="0" style="-webkit-tap-highlight-color: rgba(0, 0, 0, 0);"></path><path fill="#a91608" stroke="#000000" d="M127.73359536602479,416.84098406560065L113.83228354638027,404.6957736833184L100.31740643623914,418.8312269230348L115.54021743726452,432.13099637039784" stroke-width="0" style="-webkit-tap-highlight-color: rgba(0, 0, 0, 0);"></path><path fill="#a91608" stroke="#000000" d="M113.83228354638027,404.6957736833184L101.07562258635673,391.35335236303706L86.34806013870653,404.2204361796985L100.31740643623914,418.8312269230348" stroke-width="0" style="-webkit-tap-highlight-color: rgba(0, 0, 0, 0);"></path><path fill="#a91608" stroke="#000000" d="M101.07562258635673,391.35335236303706L89.56632161920913,376.921145436011L73.74465150721184,388.4162616364484L86.34806013870653,404.2204361796985" stroke-width="0" style="-webkit-tap-highlight-color: rgba(0, 0, 0, 0);"></path><path fill="#a9a008" stroke="#000000" d="M89.56632161920913,376.921145436011L79.39704676896557,361.51535254641624L62.60865577737161,371.5459492140026L73.74465150721184,388.4162616364484" stroke-width="0" style="-webkit-tap-highlight-color: rgba(0, 0, 0, 0);"></path><path fill="#a9a008" stroke="#000000" d="M79.39704676896557,361.51535254641624L70.64967505728336,345.26001208014037L53.029733438943026,353.74532874840355L62.60865577737161,371.5459492140026" stroke-width="0" style="-webkit-tap-highlight-color: rgba(0, 0, 0, 0);"></path><path fill="#a9a008" stroke="#000000" d="M70.64967505728336,345.26001208014037L63.39463517781371,328.28600248063236L45.08500834227996,335.1577203690449L53.029733438943026,353.74532874840355" stroke-width="0" style="-webkit-tap-highlight-color: rgba(0, 0, 0, 0);"></path><path fill="#a9a008" stroke="#000000" d="M63.39463517781371,328.28600248063236L57.690340445771824,310.7299884926315L38.83844674243815,315.9327805692606L45.08500834227996,335.1577203690449" stroke-width="0" style="-webkit-tap-highlight-color: rgba(0, 0, 0, 0);"></path><path fill="#a9a008" stroke="#000000" d="M57.690340445771824,310.7299884926315L53.58271848826902,292.733320818L34.34034228050069,296.2252972602369L38.83844674243815,315.9327805692606" stroke-width="0" style="-webkit-tap-highlight-color: rgba(0, 0, 0, 0);"></path><path fill="#a9a008" stroke="#000000" d="M53.58271848826902,292.733320818L51.10484146206457,274.4408980429848L31.626911048752532,276.1939435097655L34.34034228050069,296.2252972602369" stroke-width="0" style="-webkit-tap-highlight-color: rgba(0, 0, 0, 0);"></path><path fill="#a9a008" stroke="#000000" d="M51.10484146206457,274.4408980429848L50.276659776005346,256.00000000000006L30.71999999999997,256.00000000000006L31.626911048752532,276.1939435097655" stroke-width="0" style="-webkit-tap-highlight-color: rgba(0, 0, 0, 0);"></path><path fill="#a9a008" stroke="#000000" d="M50.276659776005346,256.00000000000006L51.10484146206457,237.55910195701523L31.626911048752504,235.80605649023454L30.71999999999997,256.00000000000006" stroke-width="0" style="-webkit-tap-highlight-color: rgba(0, 0, 0, 0);"></path><path fill="#a9a008" stroke="#000000" d="M51.10484146206457,237.55910195701523L53.58271848826902,219.26667918200008L34.34034228050069,215.77470273976317L31.626911048752504,235.80605649023454" stroke-width="0" style="-webkit-tap-highlight-color: rgba(0, 0, 0, 0);"></path><path fill="#a9a008" stroke="#000000" d="M53.58271848826902,219.26667918200008L57.690340445771795,201.27001150736862L38.83844674243812,196.06721943073947L34.34034228050069,215.77470273976317" stroke-width="0" style="-webkit-tap-highlight-color: rgba(0, 0, 0, 0);"></path><path fill="#29a908" stroke="#000000" d="M57.690340445771795,201.27001150736862L63.39463517781368,183.7139975193677L45.08500834227996,176.84227963095515L38.83844674243812,196.06721943073947" stroke-width="0" style="-webkit-tap-highlight-color: rgba(0, 0, 0, 0);"></path><path fill="#29a908" stroke="#000000" d="M63.39463517781368,183.7139975193677L70.6496750572833,166.7399879198597L53.02973343894297,158.25467125159653L45.08500834227996,176.84227963095515" stroke-width="0" style="-webkit-tap-highlight-color: rgba(0, 0, 0, 0);"></path><path fill="#29a908" stroke="#000000" d="M70.6496750572833,166.7399879198597L79.39704676896551,150.48464745358376L62.60865577737155,140.45405078599748L53.02973343894297,158.25467125159653" stroke-width="0" style="-webkit-tap-highlight-color: rgba(0, 0, 0, 0);"></path><path fill="#29a908" stroke="#000000" d="M79.39704676896551,150.48464745358376L89.5663216192091,135.07885456398907L73.74465150721178,123.58373836355167L62.60865577737155,140.45405078599748" stroke-width="0" style="-webkit-tap-highlight-color: rgba(0, 0, 0, 0);"></path><path fill="#29a908" stroke="#000000" d="M89.5663216192091,135.07885456398907L101.0756225863567,120.64664763696297L86.34806013870647,107.77956382030155L73.74465150721178,123.58373836355167" stroke-width="0" style="-webkit-tap-highlight-color: rgba(0, 0, 0, 0);"></path><path fill="#29a908" stroke="#000000" d="M101.0756225863567,120.64664763696297L113.83228354638024,107.30422631668168L100.31740643623908,93.16877307696527L86.34806013870647,107.77956382030155" stroke-width="0" style="-webkit-tap-highlight-color: rgba(0, 0, 0, 0);"></path><path fill="#29a908" stroke="#000000" d="M113.83228354638024,107.30422631668168L127.7335953660247,95.1590159343994L115.54021743726446,79.86900362960225L100.31740643623908,93.16877307696527" stroke-width="0" style="-webkit-tap-highlight-color: rgba(0, 0, 0, 0);"></path><path fill="#29a908" stroke="#000000" d="M127.7335953660247,95.1590159343994L142.6676328563574,84.30880258284625L131.89392801847026,67.98733740166494L115.54021743726446,79.86900362960225" stroke-width="0" style="-webkit-tap-highlight-color: rgba(0, 0, 0, 0);"></path><path fill="#29a908" stroke="#000000" d="M142.6676328563574,84.30880258284625L158.51415592857796,74.8409458001068L149.2468677180828,57.619438583314064L131.89392801847026,67.98733740166494" stroke-width="0" style="-webkit-tap-highlight-color: rgba(0, 0, 0, 0);"></path><path fill="#29a908" stroke="#000000" d="M158.51415592857796,74.8409458001068L175.14557769651356,66.83167520198597L167.45932086900405,48.848783399609175L149.2468677180828,57.619438583314064" stroke-width="0" style="-webkit-tap-highlight-color: rgba(0, 0, 0, 0);"></path><path fill="#08a972" stroke="#000000" d="M175.14557769651356,66.83167520198597L192.42799173120642,60.34547672596503L186.3846515072118,41.7459880090278L167.45932086900405,48.848783399609175" stroke-width="0" style="-webkit-tap-highlight-color: rgba(0, 0, 0, 0);"></path><path fill="#08a972" stroke="#000000" d="M192.42799173120642,60.34547672596503L210.22225019674403,55.43457342834995L205.87048399832145,36.36823994367876L186.3846515072118,41.7459880090278" stroke-width="0" style="-webkit-tap-highlight-color: rgba(0, 0, 0, 0);"></path><path fill="#08a972" stroke="#000000" d="M210.22225019674403,55.43457342834995L228.3850841868165,52.13850501492871L225.7599298765985,32.758837668919654L205.87048399832145,36.36823994367876" stroke-width="0" style="-webkit-tap-highlight-color: rgba(0, 0, 0, 0);"></path><path fill="#08a972" stroke="#000000" d="M228.3850841868165,52.13850501492871L246.77025724170917,50.4838094905094L245.89285101863595,30.94684196957263L225.7599298765985,32.758837668919654" stroke-width="0" style="-webkit-tap-highlight-color: rgba(0, 0, 0, 0);"></path><path fill="#08a972" stroke="#000000" d="M246.77025724170917,50.4838094905094L265.22974275829074,50.48380949050937L266.10714898136393,30.946841969572603L245.89285101863595,30.94684196957263" stroke-width="0" style="-webkit-tap-highlight-color: rgba(0, 0, 0, 0);"></path></svg>
